<?xml version="1.0" encoding="UTF-8" standalone="yes"?>
<!DOCTYPE svg PUBLIC "-//W3C//DTD SVG 1.1//EN" "http://www.w3.org/Graphics/SVG/1.1/DTD/svg11.dtd">

<svg width="50" height="50" viewBox="0 0 50 50" xmlns="http://www.w3.org/2000/svg" xmlns:xlink="http://www.w3.org/1999/xlink" version="1.1" baseProfile="full">
    <g transform="scale(1,-1) translate(0,-50)">
        <path d="M 47.674100 1.084600 L 48.456200 1.327400 L 49.163800 1.711600 L 49.780200 2.220500 L 50.288800 2.837200 L 50.672700 3.545000 L 50.915400 4.327300 L 51.000000 5.167100 L 51.000000 42.146800 L 50.915400 42.986600 L 50.672700 43.768700 L 50.288800 44.476300 L 49.780200 45.092700 L 49.163800 45.601300 L 48.456200 45.985200 L 47.674100 46.227900 L 46.834300 46.312500 L 40.062500 46.312500 L 40.062500 49.437500 L 39.939800 50.046100 L 39.605200 50.542700 L 39.108600 50.877300 L 38.500000 51.000000 L 37.891300 50.877300 L 37.394700 50.542700 L 37.060100 50.046100 L 36.937500 49.437500 L 36.937500 46.312500 L 27.562500 46.312500 L 27.562500 49.437500 L 27.439600 50.046100 L 27.104600 50.542700 L 26.608000 50.877300 L 26.000000 51.000000 L 25.391900 50.877300 L 24.895300 50.542700 L 24.560300 50.046100 L 24.437500 49.437500 L 24.437500 46.312500 L 15.062500 46.312500 L 15.062500 49.437500 L 14.939600 50.046100 L 14.604600 50.542700 L 14.108000 50.877300 L 13.500000 51.000000 L 12.891900 50.877300 L 12.395300 50.542700 L 12.060300 50.046100 L 11.937500 49.437500 L 11.937500 46.312500 L 5.167100 46.312500 L 4.327300 46.227900 L 3.545000 45.985200 L 2.837200 45.601300 L 2.220500 45.092700 L 1.711600 44.476300 L 1.327400 43.768700 L 1.084600 42.986600 L 1.000000 42.146800 L 1.000000 5.167100 L 1.084600 4.327300 L 1.327400 3.545000 L 1.711600 2.837200 L 2.220500 2.220500 L 2.837200 1.711600 L 3.545000 1.327400 L 4.327300 1.084600 L 5.167100 1.000000 L 46.834300 1.000000 Z M 5.167100 4.125000 L 4.761700 4.206900 L 4.430400 4.430400 L 4.206900 4.761700 L 4.124900 5.167100 L 4.124900 42.146800 L 4.206900 42.551300 L 4.430400 42.882200 L 4.761700 43.105500 L 5.167100 43.187500 L 11.937500 43.187500 L 11.937500 40.062500 L 12.060300 39.453800 L 12.395300 38.957200 L 12.891900 38.622600 L 13.500000 38.500000 L 14.108000 38.622600 L 14.604600 38.957200 L 14.939600 39.453800 L 15.062500 40.062500 L 15.062500 43.187500 L 24.437500 43.187500 L 24.437500 40.062500 L 24.560300 39.453800 L 24.895300 38.957200 L 25.391900 38.622600 L 26.000000 38.500000 L 26.608000 38.622600 L 27.104600 38.957200 L 27.439600 39.453800 L 27.562500 40.062500 L 27.562500 43.187500 L 36.937500 43.187500 L 36.937500 40.062500 L 37.060100 39.453800 L 37.394700 38.957200 L 37.891300 38.622600 L 38.500000 38.500000 L 39.108600 38.622600 L 39.605200 38.957200 L 39.939800 39.453800 L 40.062500 40.062500 L 40.062500 43.187500 L 46.834300 43.187500 L 47.238800 43.105500 L 47.569700 42.882200 L 47.793000 42.551300 L 47.875000 42.146800 L 47.875000 5.167100 L 47.793000 4.761700 L 47.569700 4.430400 L 47.238800 4.206900 L 46.834300 4.125000 Z M 40.062500 32.250000 L 33.812500 32.250000 L 33.812500 27.562500 L 40.062500 27.562500 Z M 18.187400 32.250000 L 11.937400 32.250000 L 11.937400 27.562500 L 18.187400 27.562500 Z M 29.124900 32.250000 L 22.874900 32.250000 L 22.874900 27.562500 L 29.124900 27.562500 Z M 29.124900 24.437400 L 22.874900 24.437400 L 22.874900 19.749900 L 29.124900 19.749900 Z M 18.187400 24.437400 L 11.937400 24.437400 L 11.937400 19.749900 L 18.187400 19.749900 Z M 40.062500 24.437400 L 33.812500 24.437400 L 33.812500 19.749900 L 40.062500 19.749900 Z M 40.062500 16.624900 L 33.812500 16.624900 L 33.812500 11.937400 L 40.062500 11.937400 Z M 18.187400 16.624900 L 11.937400 16.624900 L 11.937400 11.937400 L 18.187400 11.937400 Z M 29.124900 16.624900 L 22.874900 16.624900 L 22.874900 11.937400 L 29.124900 11.937400 Z" transform="scale(1.000000,1.000000) translate(-1.000000,-1.000000)" fill="#ffffff" opacity="1.000000"></path>
    </g>
</svg>