<?xml version="1.0" encoding="UTF-8" standalone="yes"?>
<!DOCTYPE svg PUBLIC "-//W3C//DTD SVG 1.1//EN" "http://www.w3.org/Graphics/SVG/1.1/DTD/svg11.dtd">

<svg width="20" height="20" viewBox="0 0 20 20" xmlns="http://www.w3.org/2000/svg" xmlns:xlink="http://www.w3.org/1999/xlink" version="1.1" baseProfile="full">
    <g transform="scale(1,-1) translate(0,-20)">
        <path d="M 22.000001 42.000000 C 10.965938 42.000000 2.000000 33.034062 2.000000 21.999999 C 2.000000 10.965936 10.965938 1.999999 22.000001 1.999999 C 33.034064 1.999999 42.000001 10.965936 42.000001 21.999999 C 42.000001 33.034062 33.034064 42.000000 22.000001 42.000000 Z M 22.000001 39.469586 C 25.296839 39.469586 28.374697 38.569343 31.002434 36.987834 C 31.020682 36.975668 31.032848 36.951337 31.051096 36.939173 C 31.081509 36.908759 31.118006 36.872262 31.148419 36.841849 C 31.178833 36.805352 31.190998 36.817518 31.245743 36.793187 C 31.263991 36.708028 31.300488 36.647202 31.343067 36.598540 C 31.361315 36.580291 31.367397 36.537712 31.391728 36.501216 C 31.428225 36.452555 31.476887 36.397810 32.024332 36.111922 C 31.957422 36.142335 31.878346 36.118004 31.829685 36.063260 C 31.805354 36.032847 31.781023 36.002432 31.781023 35.965937 C 31.720196 35.996349 31.647203 36.032847 31.586376 36.063260 C 31.507300 36.093673 31.470804 36.124087 31.391728 36.160584 C 31.379563 36.166666 31.355232 36.154501 31.343067 36.160584 L 31.002434 36.209246 C 30.978103 36.215328 30.929441 36.221410 30.905110 36.209246 C 30.892945 36.203163 30.868614 36.215328 30.856449 36.209246 L 30.661801 36.257907 L 30.467154 36.355231 C 30.454989 36.361313 30.381996 36.403893 30.369831 36.403893 L 30.077860 36.452555 C 30.065694 36.452555 30.041363 36.452555 30.029198 36.452555 L 29.834551 36.452555 C 29.804137 36.452555 29.761558 36.416057 29.737227 36.403893 C 29.706813 36.385644 29.700731 36.385644 29.688565 36.355231 L 29.639904 36.257907 L 29.493918 36.209246 C 29.457422 36.203163 29.420925 36.190997 29.396595 36.160584 C 29.384429 36.142335 29.354015 36.087591 29.347933 36.063260 L 29.299271 36.014598 C 29.274940 35.990267 29.256692 35.947688 29.250609 35.917275 L 29.201947 35.819951 C 29.183699 35.801702 29.159368 35.746958 29.153285 35.722628 C 29.147203 35.704379 29.147203 35.692215 29.153285 35.673966 L 29.153285 35.576642 L 29.104624 34.992701 C 29.104624 34.980534 29.098541 34.962288 29.104624 34.944039 C 29.092458 34.937957 29.068127 34.907542 29.055962 34.895377 L 28.763991 34.457421 C 28.721412 34.408759 28.678833 34.366179 28.715329 34.311435 L 29.201947 33.581508 L 29.250609 33.435523 C 29.262775 33.411192 29.281023 33.405110 29.299271 33.386861 C 29.408760 33.295619 29.560828 33.265207 29.688565 33.240876 C 29.706813 33.240876 29.718979 33.246958 29.737227 33.240876 L 29.737227 32.997567 C 29.731144 32.954987 29.755475 32.881994 29.785889 32.851581 L 29.883213 32.705596 C 29.889295 32.687347 29.919709 32.675183 29.931874 32.656934 L 29.688565 32.559610 C 29.670317 32.553528 29.658152 32.571775 29.639904 32.559610 C 29.633821 32.553528 29.597324 32.517031 29.591242 32.510949 L 29.493918 32.364963 C 29.463504 32.364963 29.427008 32.340632 29.396595 32.316301 L 29.299271 32.218978 C 29.287105 32.206812 29.256692 32.182481 29.250609 32.170316 C 29.244526 32.164234 29.256692 32.127736 29.250609 32.121654 L 29.201947 32.024331 L 29.201947 32.170316 C 29.201947 32.176398 29.201947 32.212896 29.201947 32.218978 C 29.189782 32.291971 29.195865 32.291971 28.326035 33.094890 L 28.326035 33.289537 C 28.326035 33.301702 28.326035 33.374695 28.326035 33.386861 L 28.277373 33.435523 C 28.271290 33.447688 28.283456 33.472018 28.277373 33.484185 C 28.240877 33.545011 28.222629 33.545011 27.936740 33.678832 L 27.936740 33.776155 C 27.894161 33.855230 27.796838 33.867397 27.693431 33.873479 L 27.498784 33.873479 C 27.346716 33.861313 27.334551 33.836982 27.206813 33.192214 C 27.206813 33.167883 27.194648 33.113139 27.206813 33.094890 C 27.212896 33.082724 27.200731 33.058393 27.206813 33.046228 C 27.194648 33.046228 27.121655 33.003649 27.109490 32.997567 C 27.072993 32.991485 27.042580 32.979318 27.012166 32.948905 C 27.000001 32.942823 26.975670 32.954987 26.963504 32.948905 C 26.945256 32.936739 26.957422 32.918492 26.914843 32.900243 C 26.902677 32.894161 26.872264 32.906325 26.866181 32.900243 C 26.774940 32.900243 26.701947 32.839415 26.574210 32.705596 C 26.549879 32.669099 26.562046 32.602190 26.574210 32.559610 L 26.622872 32.364963 C 26.641120 32.316301 26.659370 32.310219 26.720195 32.267640 C 26.708030 32.255473 26.677616 32.225060 26.671534 32.218978 C 26.659370 32.200729 26.677616 32.188565 26.671534 32.170316 L 26.622872 31.927007 C 26.616789 31.872263 26.635039 31.774940 26.671534 31.732360 C 26.701947 31.695863 26.762774 31.665449 26.866181 31.683698 L 27.304137 31.781022 C 27.316302 31.787104 27.346716 31.774940 27.352799 31.781022 L 27.693431 31.927007 C 27.699514 31.933089 27.736011 31.920925 27.742093 31.927007 C 27.748176 31.920925 27.736011 31.884427 27.742093 31.878345 L 27.693431 31.878345 C 27.681266 31.866179 27.656935 31.847932 27.644770 31.829683 C 27.638687 31.823601 27.650852 31.793186 27.644770 31.781022 L 27.547446 31.586374 C 27.535281 31.531631 27.559611 31.440389 27.596108 31.391727 C 27.632604 31.343065 27.705597 31.300486 27.790755 31.294404 L 27.936740 31.294404 L 27.888079 31.148418 C 27.881996 31.130169 27.888079 31.118005 27.888079 31.099756 C 27.888079 31.087590 27.888079 31.063259 27.888079 31.051095 C 27.900244 30.990267 27.875913 30.917274 27.888079 30.856447 C 27.900244 30.832116 27.967154 30.728711 27.985402 30.710462 C 28.015816 30.680049 28.040147 30.661800 28.082726 30.661800 C 28.180049 30.655718 28.246959 30.661800 28.326035 30.661800 L 28.666667 30.418491 L 28.618006 30.321168 C 28.618006 30.309001 28.618006 30.236009 28.618006 30.223844 L 28.666667 30.029197 C 28.526765 30.053528 28.502434 30.102189 27.936740 30.175182 C 27.888079 30.187347 27.839417 30.187347 27.644770 30.223844 C 27.620439 30.229926 27.614356 30.229926 27.596108 30.223844 L 27.498784 30.175182 C 27.456205 30.163016 27.419709 30.126520 27.401461 30.077859 C 27.389295 30.059610 27.413626 30.053528 27.401461 30.029197 L 27.304137 30.029197 C 27.267641 30.023115 27.231144 29.962286 27.206813 29.931873 C 27.200731 29.925791 27.170317 29.944038 27.158152 29.931873 C 27.127738 29.901460 27.103407 29.828468 27.109490 29.785888 C 27.139903 29.591241 27.176400 29.305352 27.206813 29.104622 L 27.109490 28.569343 C 27.109490 28.557176 27.109490 28.532845 27.109490 28.520681 C 27.115573 28.502433 27.103407 28.472019 27.109490 28.423357 C 27.115573 28.386859 27.127738 28.350365 27.158152 28.326034 L 27.255475 28.228710 L 27.401461 27.839416 C 27.437957 27.742092 27.541363 27.675182 27.644770 27.693430 L 27.936740 27.742092 L 28.082726 27.644768 L 27.109490 26.817518 C 27.091242 26.805351 27.066911 26.738442 27.060828 26.720194 L 26.914843 26.038929 L 26.233577 25.600973 L 25.941607 25.454987 C 25.905112 25.436739 25.862531 25.394159 25.844283 25.357664 C 25.716546 25.071776 25.491486 24.737224 25.309003 24.433090 C 25.229928 24.299268 25.193431 24.183698 25.114356 24.043795 L 24.725062 23.265206 C 24.712898 23.240875 24.718979 23.192214 24.725062 23.167883 C 24.731144 23.076642 24.725062 23.070559 24.725062 23.021897 C 24.725062 22.997566 24.712898 22.942822 24.725062 22.924574 C 24.725062 22.918491 24.767641 22.881995 24.773723 22.875912 L 24.871047 22.729926 L 24.968371 21.999999 L 24.481753 21.075425 C 24.451339 21.020681 24.481753 20.929440 24.530414 20.880778 L 24.725062 20.686131 C 24.725062 20.594890 24.731144 20.491484 24.725062 20.394160 C 24.718979 20.375912 24.725062 20.363746 24.725062 20.345498 L 24.725062 20.296836 C 24.725062 20.266423 24.706813 20.223844 24.725062 20.199513 L 24.871047 19.956204 L 25.114356 19.712895 L 25.600974 19.031629 C 25.613141 19.013381 25.637472 18.995132 25.649636 18.982968 L 25.941607 18.739659 L 26.136254 18.447688 C 26.142337 18.441605 26.178833 18.453771 26.184916 18.447688 L 26.282239 18.399026 C 26.288322 18.392943 26.276156 18.356447 26.282239 18.350364 L 26.330901 18.301702 C 26.343068 18.289536 26.361315 18.307785 26.379563 18.301702 L 27.060828 17.912408 L 27.304137 17.717761 C 27.328468 17.699513 27.322385 17.675182 27.352799 17.669099 C 27.358882 17.669099 27.389295 17.669099 27.401461 17.669099 C 27.510950 17.669099 27.656935 17.723844 27.742093 17.766423 L 28.228711 17.815084 L 29.007300 17.815084 C 29.013383 17.815084 29.049879 17.863746 29.055962 17.863746 L 29.785889 17.912408 C 29.804137 17.906325 29.816303 17.906325 29.834551 17.912408 L 29.931874 17.912408 C 29.950123 17.918491 29.968371 17.948903 29.980536 17.961070 L 30.272507 18.107055 L 30.564478 18.107055 L 30.759125 18.155717 L 30.905110 17.717761 C 30.929441 17.650851 31.032848 17.608270 31.099758 17.620437 L 31.635037 17.620437 L 31.829685 17.328466 L 31.878346 17.231143 L 31.440390 16.355230 C 31.422142 16.318734 31.422142 16.294403 31.440390 16.257907 L 31.829685 15.333333 L 31.878346 15.138685 L 31.878346 14.944038 C 31.878346 14.937955 31.878346 14.895376 31.878346 14.895376 C 31.878346 14.871045 31.914843 14.864963 31.927008 14.846715 C 31.933091 14.822384 31.969587 14.773722 31.975670 14.749391 C 31.987835 14.725060 31.969587 14.688564 31.975670 14.652067 L 32.024332 14.554744 L 31.927008 14.262773 L 31.732361 13.192213 L 31.391728 12.900242 L 31.245743 12.510948 L 31.148419 12.462286 C 31.136254 12.456203 31.063261 12.425790 31.051096 12.413624 C 31.026765 12.395376 31.014599 12.389294 31.002434 12.364963 C 30.917276 12.158150 30.832118 11.963503 30.759125 11.781021 C 30.753042 11.762773 30.759125 11.701946 30.759125 11.683697 C 30.753042 11.665449 30.753042 11.653284 30.759125 11.635036 L 30.856449 11.245741 C 30.686132 10.613138 30.491485 9.931873 30.321169 9.445254 C 30.315086 9.439172 30.272507 9.402675 30.272507 9.396593 L 30.272507 9.250607 L 30.126522 8.909975 C 30.065694 8.782237 30.041363 8.733576 29.931874 8.520680 L 29.785889 8.374695 C 29.694648 8.271289 29.603407 8.113138 29.542580 7.985400 L 29.493918 7.888077 C 29.469587 7.851580 29.475670 7.833332 29.493918 7.790753 C 29.512166 7.748174 29.548663 7.711678 29.591242 7.693430 C 29.688565 7.656933 29.767641 7.644768 29.834551 7.644768 C 29.852799 7.644768 29.864964 7.638685 29.883213 7.644768 C 29.937957 7.669099 30.017032 7.705595 30.077860 7.742091 L 30.077860 7.790753 C 30.333334 7.839415 30.667884 7.875911 30.953772 7.936739 L 31.489052 8.180048 C 31.501217 8.186130 31.531631 8.222627 31.537714 8.228709 L 32.316303 8.763989 C 32.322385 8.770072 32.358882 8.757907 32.364964 8.763989 L 32.364964 8.812651 C 32.462288 8.879561 32.693432 9.007298 32.754259 9.055960 L 33.143553 9.493916 L 33.338200 9.688564 L 33.435524 9.737225 L 33.532848 9.737225 C 33.551096 9.737225 33.563261 9.731143 33.581509 9.737225 C 33.666668 9.773722 33.721412 9.877128 33.776157 9.931873 L 34.262775 10.418491 C 34.274940 10.430656 34.305354 10.454987 34.311437 10.467152 L 34.603407 11.002432 L 34.652069 11.051094 L 34.700731 11.051094 C 34.725062 11.051094 34.731145 11.087590 34.749393 11.099756 C 34.834551 11.136252 34.895378 11.184914 34.944040 11.245741 L 35.041364 11.343065 C 35.260342 11.495133 35.521899 11.714111 35.673967 11.829683 L 35.722629 11.829683 C 35.698298 11.799269 35.698298 11.768856 35.673967 11.732359 C 35.661802 11.720194 35.631388 11.647201 35.625305 11.635036 L 35.430658 11.294403 L 35.041364 10.953770 C 35.010950 10.917274 35.010950 10.917274 34.506084 10.175182 C 34.469587 10.108272 34.463505 10.023113 34.457422 9.931873 C 34.451339 9.871045 34.457422 9.816301 34.506084 9.785887 C 31.336984 6.537712 26.908760 4.530412 22.000001 4.530412 C 21.172750 4.530412 20.363748 4.615571 19.566911 4.725060 C 19.585159 4.761556 19.579077 4.834549 19.566911 4.871045 C 19.591241 4.864962 19.639903 4.864962 19.664234 4.871045 C 19.688565 4.877128 19.694648 4.907541 19.712896 4.919707 C 19.743310 4.944038 19.804137 4.974451 19.810220 5.017031 C 19.816302 5.059610 19.791971 5.126520 19.761558 5.163016 L 19.615572 5.309001 C 19.585159 5.339415 19.591241 5.375911 19.420925 5.454987 C 19.402677 5.461069 19.390511 5.454987 19.372263 5.454987 C 19.347932 5.461069 19.299271 5.418490 19.274940 5.406325 C 19.244526 5.394159 19.201947 5.418490 19.177616 5.406325 C 19.116790 5.369829 19.104623 5.278588 19.128954 5.211678 C 19.135037 5.181264 19.153285 5.163016 19.177616 5.114354 L 18.934307 5.163016 C 18.922143 5.169099 18.903893 5.205595 18.885645 5.211678 C 18.873481 5.217760 18.849150 5.211678 18.836983 5.211678 L 18.788322 5.260340 C 18.776158 5.272505 18.751827 5.302919 18.739660 5.309001 L 18.545013 5.406325 L 18.350365 5.698296 C 18.344283 5.704378 18.307786 5.746958 18.301704 5.746958 C 18.265209 5.783454 18.240878 5.801702 18.204380 5.844281 C 18.186132 5.862529 18.180049 5.880778 18.155718 5.892943 L 17.961071 5.941605 C 17.961071 5.978101 17.936740 6.008515 17.912409 6.038928 C 17.760341 6.215327 17.614356 6.403892 17.474453 6.574208 C 17.462289 6.592456 17.444039 6.616787 17.425791 6.622870 L 17.377129 6.622870 C 17.413627 6.671532 17.456205 6.762773 17.425791 6.817517 C 17.413627 6.841848 17.389296 6.854014 17.377129 6.866179 L 17.571777 7.012164 C 17.602190 7.036495 17.614356 7.072992 17.620438 7.109488 C 17.626521 7.127736 17.626521 7.139902 17.620438 7.158150 L 17.571777 7.498782 C 17.565694 7.529196 17.596108 7.571775 17.571777 7.596106 C 17.547446 7.620437 17.498784 7.626520 17.474453 7.644768 C 17.504867 7.656933 17.553528 7.711678 17.571777 7.742091 C 17.583944 7.754257 17.614356 7.772505 17.620438 7.790753 L 17.669100 8.034062 L 17.717762 8.082724 C 17.736010 8.100972 17.711679 8.107055 17.717762 8.131386 L 17.815086 8.472018 C 17.827253 8.490267 17.857665 8.551094 17.863747 8.569342 C 17.869830 8.587590 17.863747 8.599756 17.863747 8.618004 L 17.863747 8.763989 C 17.906327 8.806568 17.936740 8.903892 17.912409 8.958636 L 17.620438 9.737225 C 17.973238 9.931873 18.405110 10.144768 18.739660 10.321167 C 18.782239 10.345498 18.782239 10.369829 18.788322 10.418491 L 18.836983 10.661800 C 18.891728 11.020680 18.928224 11.452554 18.982969 11.781021 C 18.989052 11.799269 18.989052 11.811435 18.982969 11.829683 L 18.788322 12.754257 L 18.885645 12.851581 L 19.031631 12.900242 C 19.049879 12.906325 19.062044 12.936739 19.080292 12.948904 L 19.128954 12.997566 L 19.712896 14.068126 C 19.725063 14.086374 19.755475 14.147201 19.761558 14.165449 C 19.761558 14.183697 19.767640 14.201946 19.761558 14.214111 L 19.566911 15.041362 C 19.554747 15.083941 19.512166 15.120437 19.469587 15.138685 C 19.031631 15.363746 18.484187 15.637469 18.009733 15.868612 C 18.003650 15.874695 17.967154 15.911191 17.961071 15.917274 L 16.744526 16.063260 L 16.355232 16.209245 L 15.868614 16.549878 C 15.862531 16.555960 15.832119 16.592457 15.819952 16.598539 L 15.722628 16.647201 C 15.746959 16.689780 15.746959 16.750608 15.722628 16.793187 C 15.710464 16.817517 15.686133 16.872262 15.673966 16.890510 C 15.643553 16.927007 15.619222 16.951337 15.576643 16.939172 L 15.527981 16.939172 L 15.187348 17.231143 L 14.749392 17.863746 C 14.743309 17.888077 14.718978 17.894160 14.700730 17.912408 L 14.652069 17.961070 C 14.633820 17.979318 14.627738 18.003649 14.603407 18.009732 L 13.873480 18.350364 L 13.630171 18.545011 C 13.599758 18.569342 13.575427 18.551094 13.532847 18.545011 L 13.046229 18.496350 L 12.559611 19.031629 L 12.608273 19.080291 C 12.663017 19.104622 12.699514 19.122870 12.705596 19.177615 C 12.717763 19.293187 12.711678 19.396593 12.705596 19.469586 L 12.851582 19.615571 C 12.881995 19.645985 12.900244 19.670316 12.900244 19.712895 L 12.900244 19.810218 C 12.900244 19.895375 12.833333 19.950121 12.754258 19.956204 C 12.553529 19.968368 12.383213 19.956204 12.218978 19.956204 C 12.218978 19.968368 12.218978 19.998783 12.218978 20.004866 C 12.218978 20.035279 12.231145 20.065691 12.170317 20.248175 C 12.231145 20.284669 12.267640 20.321167 12.267640 20.394160 C 12.267640 20.424574 12.261558 20.430655 12.170317 20.686131 C 12.164235 20.728710 12.158152 20.813868 12.121655 20.929440 C 12.145986 20.941604 12.152068 20.947688 12.170317 20.978102 C 12.218978 21.063258 12.206814 21.111920 12.121655 21.367396 C 12.115573 21.379560 12.127737 21.403891 12.121655 21.416058 C 12.133821 21.452553 12.133821 21.476884 12.121655 21.513381 C 12.200729 21.543795 12.261558 21.616788 12.267640 21.708029 C 12.267640 21.738442 12.255476 21.732359 12.170317 21.999999 C 12.133821 22.066909 12.072993 22.127737 12.024331 22.145985 C 12.030413 22.206811 12.012167 22.249391 11.975669 22.291970 C 11.939174 22.334549 11.896595 22.383211 11.829684 22.389294 L 11.781022 22.389294 C 11.762773 22.462287 11.683699 22.510948 11.586375 22.535279 C 11.452556 22.571774 11.306570 22.602189 11.148419 22.632603 C 11.069344 22.644767 10.996351 22.675182 10.953772 22.681265 C 10.929441 22.687347 10.880779 22.687347 10.856448 22.681265 C 10.801704 22.669098 10.740875 22.626520 10.710463 22.583941 C 10.649636 22.626520 10.619221 22.687347 10.564477 22.729926 L 10.418492 22.827250 C 10.388079 22.857664 10.315086 22.888076 10.272506 22.875912 C 10.205596 22.869829 10.114356 22.839414 10.077859 22.778588 L 9.639903 23.021897 L 9.445256 23.119221 C 9.420925 23.137469 9.402676 23.155716 9.347932 23.167883 C 9.323601 23.173965 9.274939 23.173965 9.250608 23.167883 C 9.335767 23.192214 9.390512 23.253039 9.396594 23.313868 C 9.408760 23.380778 9.384429 23.417274 9.250608 23.751824 C 9.214113 23.843065 9.141120 23.873479 9.055961 23.849148 C 9.019466 23.836981 8.958638 23.824817 8.909976 23.751824 C 8.879563 23.697080 8.843065 23.624087 8.812652 23.557177 L 8.763990 23.508515 C 8.599756 23.624087 8.453771 23.727493 8.277372 23.849148 C 8.027981 24.019464 7.760341 24.232360 7.547445 24.384428 C 7.523115 24.402676 7.474453 24.384428 7.450122 24.384428 C 7.431873 24.384428 7.413626 24.390510 7.401460 24.384428 L 6.963504 24.287104 C 6.951339 24.281021 6.927008 24.293187 6.914842 24.287104 C 6.835767 24.256690 6.835767 24.232360 6.622871 23.751824 C 6.598540 23.776155 6.549878 23.788319 6.525548 23.800486 C 6.501217 23.806569 6.501217 23.855231 6.476886 23.849148 L 5.746959 23.703162 C 5.686132 23.697080 5.667884 23.666665 5.649635 23.605839 L 5.454988 23.021897 L 5.260341 22.973235 L 5.065694 23.508515 L 5.260341 24.579075 L 5.406326 25.065693 L 5.552312 25.309002 C 5.728710 25.582725 5.917275 25.892944 6.087591 26.136253 L 6.330900 26.136253 L 6.671533 25.795620 C 6.720195 25.746958 6.805354 25.759122 6.866180 25.795620 C 7.006083 25.874695 7.072994 26.045012 7.109489 26.184914 L 7.547445 26.038929 L 7.498784 24.773722 C 7.492701 24.712893 7.498784 24.652068 7.547445 24.627737 C 7.681266 24.560827 7.772506 24.579075 7.839416 24.579075 C 7.875913 24.579075 7.961071 24.603406 7.985402 24.627737 L 8.034063 24.627737 L 8.082725 24.433090 C 8.100974 24.378345 8.143553 24.311435 8.277372 24.287104 L 8.472020 24.287104 C 8.478102 24.287104 8.514599 24.287104 8.520681 24.287104 C 8.611923 24.299268 8.648418 24.354014 8.666667 24.433090 C 8.684916 24.487834 8.690998 24.481751 8.618005 24.871046 C 8.593674 24.968369 8.520681 25.065693 8.423358 25.065693 L 8.277372 25.065693 L 8.423358 25.454987 C 8.459855 25.716545 8.472020 25.978100 8.520681 26.233576 L 8.909976 26.866180 L 8.958638 26.866180 C 8.982969 26.866180 8.982969 26.854013 9.007299 26.866180 L 9.445256 27.158150 C 9.706814 27.340631 9.992702 27.535278 10.223845 27.693430 C 10.242093 27.705594 10.260342 27.723844 10.272506 27.742092 C 10.315086 27.802918 10.315086 27.851580 10.321168 27.888077 C 10.357665 28.064476 10.424574 28.204379 10.467154 28.374695 C 10.479320 28.368613 10.503651 28.386859 10.515815 28.374695 C 10.576643 28.326034 10.655719 28.319951 10.710463 28.374695 L 11.343066 29.055961 C 11.355232 29.068125 11.385646 29.043794 11.391728 29.055961 L 11.489051 29.201946 L 12.170317 29.299270 C 12.206814 29.305352 12.291971 29.317518 12.316302 29.347932 L 12.510949 29.542579 C 12.547446 29.585158 12.529198 29.682481 12.510949 29.737226 L 12.656935 29.931873 L 12.802920 29.931873 C 12.821169 29.931873 12.839417 29.974453 12.851582 29.980535 C 12.857664 29.980535 12.894162 29.974453 12.900244 29.980535 L 13.386862 30.223844 L 13.386862 30.077859 C 13.374697 30.035279 13.356449 30.017031 13.386862 29.980535 L 13.435523 29.931873 C 13.478103 29.883211 13.575427 29.858880 13.630171 29.883211 C 13.879562 29.980535 14.171532 30.065692 14.457421 30.175182 L 14.749392 30.321168 C 14.773723 30.327250 14.828468 30.351580 14.846716 30.369829 L 14.895378 30.418491 L 15.090025 30.418491 C 15.163017 30.424573 15.175184 30.461071 15.381996 30.613138 C 15.400244 30.631387 15.424575 30.643551 15.430657 30.661800 C 15.473236 30.753042 15.442824 30.838198 15.381996 30.905109 L 15.430657 31.099756 C 15.436740 31.142336 15.412409 31.209245 15.381996 31.245742 C 15.345501 31.288322 15.272508 31.336983 15.187348 31.343065 C 15.096107 31.336983 15.108273 31.336983 14.652069 30.856447 L 14.554745 30.953771 C 14.572993 31.014597 14.591243 31.087590 14.603407 31.148418 C 14.639905 31.148418 14.676399 31.172749 14.700730 31.197080 L 14.895378 31.391727 C 14.931875 31.422140 14.950122 31.537713 14.944039 31.586374 C 14.937957 31.622870 14.919708 31.659367 14.895378 31.683698 L 15.625305 31.683698 C 15.594891 31.665449 15.534064 31.622870 15.527981 31.537713 C 15.521898 31.489051 15.503650 31.476885 15.527981 31.440389 L 15.479319 31.294404 C 15.454988 31.251824 15.454988 31.142336 15.479319 31.099756 C 15.521898 31.008515 15.515817 31.032846 15.965937 30.953771 L 16.014599 30.856447 C 16.032847 30.832116 16.093674 30.765206 16.209246 30.759124 L 16.355232 30.759124 C 16.397811 30.765206 16.409976 30.777373 16.452555 30.807786 C 16.482969 30.783455 16.543796 30.771288 16.598541 30.759124 L 16.744526 30.759124 C 16.811436 30.771288 16.829686 30.789537 17.133820 31.002433 C 17.152069 31.020682 17.170318 31.038928 17.182482 31.099756 C 17.188565 31.136252 17.225061 31.190998 17.231144 31.245742 C 17.231144 31.330899 17.200730 31.355230 17.133820 31.391727 L 17.133820 31.440389 C 17.152069 31.482969 17.194649 31.549877 17.182482 31.586374 C 17.158151 31.641118 17.109490 31.677616 16.987835 31.732360 L 17.231144 31.975669 C 17.291973 32.030413 17.310219 32.091241 17.279806 32.170316 C 17.261558 32.212896 17.231144 32.249391 17.182482 32.267640 L 17.377129 32.510949 C 17.401460 32.547444 17.389296 32.614354 17.377129 32.656934 C 17.358881 32.705596 17.334550 32.742091 17.279806 32.754258 L 16.939173 32.802919 C 16.951340 32.815084 16.981752 32.839415 16.987835 32.851581 C 17.030414 32.973236 17.060828 33.107055 17.085159 33.192214 C 17.097326 33.259125 17.042580 33.350364 16.987835 33.386861 L 16.939173 33.435523 L 16.987835 33.581508 C 17.060828 34.043795 17.127738 34.244525 17.133820 34.262773 C 17.145987 34.329684 17.091241 34.420924 17.036497 34.457421 C 17.097326 34.481752 17.097326 34.512164 17.231144 34.749392 C 17.243311 34.743310 17.267642 34.755474 17.279806 34.749392 C 17.291973 34.749392 17.316304 34.700730 17.328468 34.700730 L 17.425791 34.700730 C 17.517032 34.706812 17.529198 34.737225 17.912409 35.138686 C 17.942823 35.120437 17.985402 35.090024 18.009733 35.090024 C 18.088808 35.090024 18.113139 35.096106 18.739660 35.430657 C 18.751827 35.436739 18.782239 35.473237 18.788322 35.479319 C 18.818735 35.503649 18.830901 35.540145 18.836983 35.576642 C 18.849150 35.655717 18.843066 35.643553 18.496351 36.063260 L 18.690998 36.257907 C 18.745743 36.361313 18.733577 36.409975 18.399027 36.890511 C 18.386863 36.908759 18.362532 36.878345 18.350365 36.890511 C 18.338201 36.902676 18.313871 36.933090 18.301704 36.939173 C 18.344283 36.969586 18.386863 37.012165 18.496351 37.133820 C 18.502434 37.139902 18.490268 37.176399 18.496351 37.182482 C 18.520682 37.170315 18.569344 37.176399 18.593674 37.182482 C 18.745743 37.212895 18.897812 37.285888 19.031631 37.377129 C 19.068129 37.401460 19.098541 37.456204 19.128954 37.474452 L 19.177616 37.474452 C 19.189783 37.474452 19.214114 37.468370 19.226278 37.474452 L 19.469587 37.523114 C 19.493918 37.535279 19.542580 37.541363 19.566911 37.571776 C 19.566911 37.547445 19.603408 37.547445 19.615572 37.523114 C 19.603408 37.486617 19.579077 37.462286 19.566911 37.425791 C 19.560828 37.407542 19.566911 37.346716 19.566911 37.328467 C 19.566911 37.310218 19.560828 37.291970 19.566911 37.279805 L 19.615572 37.182482 C 19.627739 37.145985 19.682482 37.103407 19.712896 37.085158 C 19.737227 37.072992 19.779806 37.085158 19.810220 37.085158 C 19.956205 37.079076 20.090026 37.079076 20.199514 37.085158 L 20.345499 37.036496 L 20.345499 36.939173 L 20.248176 36.647202 C 20.236012 36.622871 20.242093 36.525547 20.248176 36.501216 C 20.254258 36.470803 20.272507 36.476885 20.296838 36.452555 C 20.278589 36.416057 20.278589 36.349149 20.296838 36.306569 C 20.309004 36.276156 20.327251 36.239659 20.345499 36.209246 L 20.345499 36.160584 C 20.357666 36.142335 20.381997 36.124087 20.394161 36.111922 L 20.150852 36.111922 C 20.071777 36.099756 20.102190 36.105840 19.761558 35.819951 C 19.743310 35.801702 19.725063 35.746958 19.712896 35.722628 C 19.706813 35.710461 19.664234 35.734792 19.664234 35.722628 L 19.615572 35.381995 C 19.609490 35.357664 19.609490 35.357664 19.615572 35.333333 C 19.627739 35.302920 19.694648 35.260340 19.712896 35.236010 C 19.712896 35.229928 19.664234 35.193430 19.664234 35.187348 L 19.615572 35.187348 C 19.603408 35.181266 19.579077 35.144768 19.566911 35.138686 C 19.548662 35.120437 19.487835 35.102189 19.469587 35.041362 C 19.463504 35.010949 19.463504 34.974452 19.469587 34.944039 L 19.664234 34.262773 C 19.670317 34.232361 19.688565 34.238443 19.712896 34.214112 C 19.743310 34.189781 19.785889 34.177615 19.810220 34.165450 C 19.828468 34.159368 19.840633 34.116788 19.858881 34.116788 L 20.004867 34.116788 L 20.102190 33.970803 C 20.114357 33.952554 20.132604 33.934306 20.150852 33.922141 C 20.199514 33.885644 20.272507 33.855230 20.345499 33.873479 L 20.686132 33.922141 C 20.704380 33.928223 20.716546 33.958636 20.734794 33.970803 L 20.978103 34.165450 C 21.197081 34.390510 21.409976 34.682481 21.610706 34.895377 L 22.097324 35.041362 C 22.109491 35.041362 22.139903 35.083942 22.145986 35.090024 L 22.243310 35.138686 L 22.291971 35.090024 C 22.304138 35.083942 22.328469 35.090024 22.340633 35.090024 C 22.419709 35.090024 22.468370 35.138686 22.729928 35.333333 L 23.216546 35.576642 L 23.459855 35.527980 C 23.472022 35.521898 23.496353 35.521898 23.508516 35.527980 L 23.557178 35.527980 C 23.855232 35.637469 24.281023 35.801702 24.579076 35.917275 C 24.639905 35.917275 24.700731 35.959855 24.725062 36.014598 L 24.773723 36.111922 C 24.810221 36.184915 24.840633 36.294403 24.871047 36.355231 C 24.883214 36.379562 24.925791 36.373480 24.919709 36.403893 C 24.913626 36.446472 24.901461 36.470803 24.871047 36.501216 C 24.907545 36.525547 24.913626 36.604622 24.919709 36.647202 L 25.017032 37.133820 C 25.023115 37.158151 25.029199 37.200730 25.017032 37.231143 C 25.035281 37.267639 25.035281 37.285888 25.017032 37.328467 C 24.968371 37.431873 24.919709 37.577858 24.871047 37.669100 C 24.901461 37.681264 24.901461 37.687348 24.919709 37.717761 L 25.017032 37.669100 C 25.065694 37.650851 25.120439 37.681264 25.163018 37.717761 L 25.260341 37.815085 C 25.290755 37.845498 25.309003 37.869829 25.309003 37.912409 L 25.309003 37.961070 C 25.309003 37.991484 25.327251 38.034063 25.309003 38.058394 C 25.217762 38.186131 25.053530 38.222628 24.919709 38.253041 C 24.877130 38.265206 24.834552 38.234793 24.773723 38.253041 C 24.767641 38.253041 24.731144 38.253041 24.725062 38.253041 C 24.670317 38.253041 24.633821 38.271290 24.579076 38.253041 C 24.572993 38.283455 24.554745 38.277372 24.530414 38.301703 C 24.500001 38.332116 24.463504 38.405109 24.433091 38.447688 C 24.402677 38.508515 24.366181 38.581508 24.287105 38.642336 C 24.153287 38.751824 24.001217 38.763990 23.849149 38.788321 C 23.587592 38.818734 23.277374 38.812652 23.021898 38.788321 C 22.924575 38.782239 22.821169 38.782239 22.729928 38.788321 C 22.626521 38.794403 22.523116 38.800486 22.437957 38.788321 C 22.383212 38.782239 22.334550 38.757908 22.291971 38.739659 C 22.255477 38.757908 22.158153 38.751824 22.097324 38.739659 C 21.920925 38.697080 21.774940 38.575425 21.610706 38.447688 C 21.574211 38.417275 21.501219 38.380778 21.464721 38.350365 C 21.440390 38.399027 21.373480 38.447688 21.318735 38.447688 C 21.172750 38.453771 21.166667 38.447688 21.124088 38.496350 C 21.111924 38.514599 21.130171 38.569343 21.124088 38.593674 C 21.099757 38.672749 21.020682 38.800486 20.832117 38.836983 C 20.826035 38.836983 20.795622 38.836983 20.783456 38.836983 C 20.734794 38.836983 20.673968 38.800486 20.637470 38.788321 C 20.643553 38.788321 20.637470 38.830901 20.637470 38.836983 C 20.637470 38.909976 20.637470 39.062043 20.394161 39.128954 C 20.363748 39.135036 20.333335 39.128954 20.296838 39.128954 C 20.260343 39.128954 20.096108 39.141118 20.004867 39.080292 C 19.919710 39.025548 19.907543 38.958637 19.907543 38.934306 C 19.883212 38.916058 19.895379 38.897809 19.858881 38.885645 C 19.828468 38.873478 19.743310 38.861314 19.712896 38.836983 C 19.658151 38.800486 19.609490 38.733577 19.566911 38.690997 C 19.524331 38.642336 19.487835 38.581508 19.420925 38.593674 C 19.378346 38.611922 19.360099 38.611922 19.323602 38.593674 C 19.201947 38.538930 19.141121 38.472019 19.128954 38.399027 C 19.074210 38.344283 19.001217 38.240875 18.982969 38.155718 C 18.958638 38.137469 18.885645 38.137469 18.836983 38.107056 L 18.836983 38.301703 C 18.818735 38.380778 18.709246 38.453771 18.642336 38.447688 C 18.575426 38.441606 18.551095 38.374696 18.496351 38.301703 L 18.204380 38.155718 C 18.192216 38.149635 18.167885 38.119221 18.155718 38.107056 L 17.912409 37.815085 C 17.875914 37.772506 17.839417 37.723844 17.863747 37.669100 C 17.863747 37.669100 17.863747 37.620438 17.863747 37.620438 C 17.833334 37.663017 17.821168 37.681264 17.669100 37.717761 C 17.669100 37.717761 17.669100 37.766423 17.669100 37.766423 L 17.815086 37.961070 C 17.839417 38.003650 17.839417 38.058394 17.815086 38.107056 C 17.790755 38.161800 17.729929 38.198297 17.669100 38.204379 C 17.602190 38.198297 17.577859 38.234793 17.328468 38.058394 C 17.316304 38.052312 17.285889 38.015815 17.279806 38.009732 L 17.182482 37.766423 C 17.164234 37.778588 17.152069 37.809003 17.133820 37.815085 C 17.152069 37.845498 17.133820 37.881995 17.133820 37.912409 C 17.127738 37.991484 17.091241 38.027981 16.987835 38.107056 C 16.957421 38.125304 16.927009 38.119221 16.890511 38.107056 C 16.860098 38.100974 16.817519 38.113138 16.695864 38.058394 C 16.604623 38.100974 16.489053 38.040146 16.452555 38.009732 C 16.422142 37.979319 16.379562 37.942822 16.355232 37.912409 C 16.324818 37.973235 16.276156 38.015815 16.209246 38.009732 L 15.673966 37.961070 C 15.667884 37.961070 15.631387 37.967153 15.625305 37.961070 L 15.284672 37.815085 C 15.199515 37.778588 15.181266 37.760341 15.090025 37.620438 C 15.071777 37.620438 15.059611 37.620438 15.041363 37.620438 L 14.749392 37.620438 C 14.737228 37.620438 14.712897 37.626520 14.700730 37.620438 C 14.694648 37.620438 14.658151 37.571776 14.652069 37.571776 L 14.068127 37.328467 C 14.055962 37.322385 14.031631 37.334549 14.019465 37.328467 L 13.678832 37.085158 C 13.624089 37.048661 13.599758 36.987834 13.581509 36.939173 C 13.563260 36.878345 13.581509 36.829683 13.630171 36.793187 C 13.611922 36.774939 13.593675 36.768856 13.581509 36.744525 L 13.532847 36.841849 C 13.520682 36.884428 13.478103 36.920924 13.435523 36.939173 C 13.429441 36.957421 13.447690 36.969586 13.435523 36.987834 C 13.399028 37.036496 13.301704 37.060827 13.240876 37.036496 L 13.143553 37.036496 C 15.746959 38.569343 18.751827 39.469586 22.000001 39.469586 Z M 27.936740 38.058394 L 27.742093 38.009732 C 27.723845 38.003650 27.711680 38.021897 27.693431 38.009732 L 27.596108 37.961070 C 27.577860 37.967153 27.523115 37.967153 27.498784 37.961070 C 27.456205 37.954988 27.425792 37.930657 27.401461 37.912409 L 27.158152 37.912409 C 27.097324 37.912409 27.036497 37.918491 27.012166 37.863747 C 27.000001 37.839416 27.012166 37.790754 27.012166 37.766423 C 27.012166 37.663017 27.018249 37.626520 27.255475 37.474452 C 27.261558 37.468370 27.298054 37.480535 27.304137 37.474452 L 27.498784 37.377129 C 27.535281 37.358880 27.608273 37.371046 27.644770 37.377129 L 27.742093 37.231143 C 27.790755 37.170315 27.784672 37.133820 28.228711 36.987834 C 28.246959 36.987834 28.265208 36.981752 28.277373 36.987834 C 28.326035 36.993917 28.356448 37.042579 28.374697 37.085158 C 28.399028 37.127737 28.441607 37.188564 28.423358 37.231143 L 28.569344 37.231143 C 28.624088 37.243308 28.697081 37.273723 28.715329 37.328467 C 28.739660 37.389294 28.715329 37.480535 28.666667 37.523114 C 28.648419 37.535279 28.636254 37.541363 28.472020 37.620438 C 28.496351 37.687348 28.435524 37.729926 28.326035 37.912409 C 28.319952 37.924573 28.338200 37.948904 28.326035 37.961070 C 28.277373 38.003650 28.240877 37.997566 28.034064 38.058394 C 28.021899 38.064476 27.997568 38.058394 27.985402 38.058394 C 27.973237 38.058394 27.948906 38.058394 27.936740 38.058394 Z M 16.744526 36.111922 C 16.805355 36.087591 16.908760 36.087591 16.987835 36.063260 L 16.744526 35.868613 C 16.738443 35.862531 16.750609 35.826033 16.744526 35.819951 L 16.598541 35.673966 L 16.306570 35.673966 Z M 32.072994 36.111922 C 32.091242 36.105840 32.152069 36.111922 32.170317 36.111922 C 32.188565 36.111922 32.200731 36.105840 32.218979 36.111922 L 32.267641 36.111922 C 32.298054 36.093673 32.334551 36.081509 32.364964 36.063260 C 32.352799 36.038929 32.316303 36.038929 32.316303 36.014598 L 32.316303 35.917275 Z M 16.160584 35.625304 C 16.136253 35.607055 16.105840 35.600973 16.063261 35.576642 C 16.057178 35.570560 16.020682 35.534062 16.014599 35.527980 L 15.819952 35.333333 C 15.801704 35.302920 15.722628 35.223843 15.771290 35.138686 L 15.625305 35.187348 C 15.613141 35.193430 15.588810 35.181266 15.576643 35.187348 L 15.625305 35.479319 C 15.631387 35.497567 15.631387 35.509731 15.625305 35.527980 Z M 24.530414 35.576642 C 24.481753 35.576642 24.414843 35.546229 24.092458 35.479319 C 24.025548 35.454988 24.013383 35.442821 23.995134 35.381995 C 23.976886 35.327251 24.001217 35.223843 24.043796 35.187348 C 24.098541 35.138686 24.171534 35.077858 24.238444 35.041362 L 24.189782 34.944039 C 24.177618 34.907542 24.171534 34.834549 24.189782 34.798053 C 24.232361 34.706812 24.208030 34.682481 24.968371 34.457421 C 24.980537 34.451339 25.004868 34.457421 25.017032 34.457421 C 25.071777 34.457421 25.071777 34.439172 25.892945 34.798053 C 25.984186 34.858880 26.002435 34.986619 25.990268 35.041362 C 25.978104 35.083942 25.959855 35.126520 25.941607 35.187348 C 25.929443 35.211679 25.911193 35.217761 25.892945 35.236010 C 25.886862 35.242092 25.899027 35.278589 25.892945 35.284671 L 25.552312 35.527980 C 25.521899 35.552311 25.436740 35.570560 25.357665 35.576642 L 24.773723 35.479319 L 24.627738 35.527980 C 24.603407 35.540145 24.554745 35.576642 24.530414 35.576642 Z M 14.311436 35.138686 L 14.603407 35.138686 L 14.554745 35.090024 C 14.542581 35.010949 14.627738 34.962288 14.700730 34.944039 C 14.798054 34.913626 14.840633 34.895377 14.895378 34.895377 C 14.913626 34.895377 14.974453 34.937957 14.992701 34.944039 L 15.138687 34.944039 C 15.029199 34.840633 14.937957 34.725061 14.846716 34.603406 C 14.785890 34.524331 14.706813 34.420924 14.652069 34.360097 L 14.311436 34.262773 C 14.281022 34.250607 14.281022 34.244525 14.262774 34.214112 L 13.873480 33.630170 L 13.143553 33.386861 C 13.107057 33.374695 13.064478 33.326033 13.046229 33.289537 C 13.034064 33.265207 13.058395 33.265207 13.046229 33.240876 L 12.997567 33.240876 L 12.802920 33.581508 L 12.705596 33.970803 C 12.693432 34.013383 12.650853 34.049877 12.608273 34.068126 C 12.638686 34.092457 12.650853 34.122870 12.656935 34.165450 L 12.705596 34.262773 L 13.192214 34.603406 C 13.362531 34.670317 13.532847 34.767640 13.727494 34.846715 L 14.165450 34.992701 C 14.183699 34.998783 14.195863 35.029196 14.214112 35.041362 C 14.226279 35.053527 14.250610 35.077858 14.262774 35.090024 C 14.293188 35.114355 14.305353 35.102189 14.311436 35.138686 Z M 16.355232 35.090024 L 16.403893 35.041362 L 16.355232 34.992701 C 16.257908 34.834549 16.330901 34.804135 16.841850 34.457421 L 16.306570 34.214112 L 16.403893 34.360097 C 16.458638 34.414841 16.458638 34.493916 16.403893 34.554744 L 16.063261 34.944039 C 16.051097 34.950121 16.026766 34.986619 16.014599 34.992701 L 15.868614 35.041362 C 15.959854 34.998783 16.014599 35.035280 16.355232 35.090024 Z M 31.391728 33.922141 L 31.635037 33.824817 C 31.665451 33.812651 31.701947 33.763989 31.732361 33.776155 C 31.762775 33.678832 31.787106 33.648419 31.829685 33.581508 C 31.835767 33.563259 31.866181 33.545011 31.878346 33.532846 C 31.896595 33.520680 31.908760 33.496349 31.927008 33.484185 C 31.914843 33.453772 31.914843 33.417274 31.927008 33.386861 L 32.024332 33.094890 C 31.908760 33.125303 31.756692 33.076641 31.635037 33.046228 C 31.604624 33.034062 31.568127 33.003649 31.537714 32.997567 C 31.525548 32.997567 31.495135 33.003649 31.489052 32.997567 L 31.148419 32.851581 L 31.148419 32.900243 C 31.215329 32.924574 31.251826 32.973236 31.245743 33.046228 L 31.245743 33.386861 L 31.294405 33.532846 L 31.343067 33.873479 C 31.349149 33.891728 31.391728 33.909975 31.391728 33.922141 Z M 35.041364 30.321168 C 35.053529 30.302919 35.071777 30.290755 35.090025 30.272506 C 35.412410 29.980535 35.400244 29.980535 35.479320 29.980535 C 35.509733 29.980535 35.503651 29.962286 35.527982 29.980535 C 35.558395 29.992700 35.607057 30.004866 35.625305 30.029197 C 35.649636 30.065692 35.704381 30.096107 35.722629 30.126520 L 36.257909 29.785888 L 36.452556 29.639902 L 36.257909 29.591241 C 36.038930 29.743309 36.026765 29.737226 35.965938 29.737226 C 35.947690 29.737226 35.886862 29.743309 35.868614 29.737226 C 35.765208 29.700728 35.643553 29.633820 35.527982 29.591241 C 35.430658 29.554743 35.327252 29.524331 35.236011 29.493917 L 35.138687 29.493917 L 34.944040 29.688564 C 34.937957 29.694647 34.950123 29.725059 34.944040 29.737226 C 34.956205 29.761557 34.992702 29.791970 34.992702 29.834550 L 34.944040 29.931873 C 34.968371 29.956204 34.986619 29.998784 34.992702 30.029197 C 35.004867 30.059610 34.992702 30.096107 34.992702 30.126520 Z M 31.002434 29.639902 C 30.996351 29.633820 31.008517 29.597323 31.002434 29.591241 C 30.984186 29.566910 31.008517 29.572992 31.002434 29.542579 C 30.996351 29.530412 30.984186 29.493917 31.002434 29.396593 C 31.020682 29.341849 31.038930 29.256691 31.051096 29.201946 C 31.063261 29.171532 31.081509 29.122871 31.099758 29.104622 C 31.093675 29.074209 31.093675 29.055961 31.099758 29.007299 L 31.099758 28.909975 C 31.124088 28.812652 31.172750 28.721411 31.197081 28.618004 C 31.227495 28.490267 31.300488 28.435521 31.343067 28.423357 C 31.367397 28.417275 31.416059 28.417275 31.440390 28.423357 C 31.446473 28.423357 31.482969 28.465936 31.489052 28.472019 L 31.683699 28.520681 C 31.762775 28.545012 31.829685 28.630168 31.829685 28.715328 C 31.829685 28.745742 31.841850 28.763990 31.732361 29.104622 C 31.708030 29.165448 31.653286 29.226277 31.586376 29.250608 C 31.598541 29.287103 31.622872 29.293187 31.635037 29.347932 L 31.878346 29.104622 C 31.890512 29.092456 31.963505 29.062043 31.975670 29.055961 L 32.510950 28.763990 L 32.608273 28.715328 L 32.656935 28.569343 L 32.267641 28.666666 C 32.237227 28.672749 32.152069 28.630168 32.121655 28.618004 C 32.060828 28.587591 32.018249 28.538929 32.024332 28.472019 C 32.030415 28.423357 32.060828 28.344282 32.072994 28.277372 C 32.079076 28.253041 32.054745 28.246958 32.072994 28.228710 C 32.182483 28.088807 32.358882 27.985401 32.510950 27.888077 C 32.529198 27.875911 32.547446 27.851580 32.559612 27.839416 C 32.462288 27.821167 32.413626 27.754256 32.413626 27.644768 C 32.395378 27.717761 32.377130 27.778587 32.364964 27.839416 C 32.358882 27.875911 32.340634 27.912408 32.316303 27.936739 L 32.170317 28.034063 L 31.927008 28.180048 C 31.890512 28.198296 31.866181 28.228710 31.829685 28.228710 C 31.811436 28.228710 31.750609 28.234793 31.732361 28.228710 L 31.489052 28.131386 L 30.077860 28.034063 C 30.065694 28.034063 30.041363 28.040146 30.029198 28.034063 L 29.104624 27.693430 L 28.763991 27.693430 C 28.776157 27.705594 28.757908 27.729925 28.763991 27.742092 L 29.104624 27.790754 C 29.122872 27.790754 29.141120 27.784671 29.153285 27.790754 L 29.201947 27.790754 C 29.220195 27.796837 29.238444 27.827249 29.250609 27.839416 L 29.542580 28.082725 L 29.591242 28.131386 C 29.633821 28.180048 29.688565 28.234793 29.737227 28.277372 C 29.779806 28.319951 29.804137 28.411190 29.785889 28.472019 L 29.639904 28.812652 L 29.688565 28.909975 L 29.834551 28.958637 L 29.883213 28.958637 C 29.901461 28.958637 29.913626 28.952554 29.931874 28.958637 C 29.937957 28.958637 29.974453 29.007299 29.980536 29.007299 L 30.126522 29.104622 C 30.175183 29.128953 30.217762 29.153284 30.223845 29.201946 L 30.272507 29.493917 L 30.272507 29.542579 L 30.710463 29.445255 C 30.740877 29.445255 30.783456 29.475669 30.807787 29.493917 Z M 33.338200 28.715328 L 33.386862 28.715328 C 33.423359 28.715328 33.459855 28.697080 33.484186 28.715328 L 33.532848 28.666666 C 33.545013 28.648418 33.520682 28.630168 33.532848 28.618004 C 33.545013 28.605838 33.557179 28.587591 33.581509 28.569343 C 33.605840 28.551094 33.648419 28.526764 33.678833 28.520681 L 33.873480 28.277372 C 33.897811 28.246958 33.934308 28.234793 33.970804 28.228710 C 33.989052 28.222627 34.001218 28.234793 34.019466 28.228710 C 34.019466 28.222627 34.013383 28.186131 34.019466 28.180048 C 34.055962 28.119220 34.122872 28.058394 34.165451 27.985401 L 34.214113 27.888077 C 34.226278 27.863747 34.238444 27.809002 34.262775 27.790754 L 34.311437 27.790754 C 34.335767 27.772506 34.378346 27.742092 34.408760 27.742092 L 34.554746 27.742092 C 34.548663 27.723844 34.554746 27.717761 34.554746 27.693430 C 34.566911 27.656932 34.560828 27.675182 34.652069 27.498783 C 34.706814 27.407542 34.694648 27.383211 35.333334 27.255474 C 35.515816 27.273722 35.546230 27.425790 35.527982 27.693430 L 35.576643 27.644768 C 35.613140 27.608271 35.667884 27.583940 35.722629 27.596107 L 36.014600 27.693430 C 36.038930 27.699513 36.045013 27.681263 36.063261 27.693430 L 36.111923 27.693430 C 36.087592 27.669099 36.069344 27.620438 36.063261 27.596107 C 36.051096 27.523114 36.051096 27.456204 36.111923 27.401459 C 36.130171 27.389292 36.172750 27.389292 36.403894 27.255474 C 36.416059 27.249391 36.391729 27.212895 36.403894 27.206812 L 36.452556 27.206812 C 36.482969 27.200729 36.519466 27.243307 36.549879 27.255474 C 36.574210 27.267638 36.580293 27.285888 36.598541 27.304136 L 36.695865 27.401459 C 36.714113 27.340631 36.726278 27.267638 36.744527 27.206812 L 36.695865 26.574209 L 36.306570 26.720194 C 36.239660 26.738442 36.197081 26.677615 36.160585 26.622871 L 36.014600 26.476885 L 35.430658 26.720194 C 35.412410 26.726277 35.400244 26.726277 35.381996 26.720194 C 35.290755 26.714111 35.211680 26.720194 35.138687 26.720194 L 35.090025 26.768856 C 35.065694 26.805351 35.035281 26.860097 34.992702 26.866180 C 34.791972 26.896593 34.658152 26.866180 34.506084 26.866180 C 34.487836 26.866180 34.475670 26.872262 34.457422 26.866180 C 34.445256 26.860097 34.414843 26.872262 34.408760 26.866180 L 34.262775 26.768856 C 34.226278 26.744525 34.171534 26.714111 34.165451 26.671532 L 34.116789 26.379562 L 33.435524 26.768856 C 33.429441 26.774939 33.392945 26.762773 33.386862 26.768856 L 32.656935 26.963503 L 32.462288 27.060827 C 32.480536 27.091240 32.462288 27.121653 32.462288 27.158150 C 32.450123 27.310219 32.431874 27.419708 32.413626 27.547445 C 32.431874 27.492700 32.480536 27.462285 32.510950 27.401459 C 32.529198 27.371046 32.541363 27.304136 32.559612 27.255474 C 32.614356 27.158150 32.681266 27.164233 32.705597 27.158150 C 32.723845 27.152068 32.736011 27.152068 32.754259 27.158150 C 32.851582 27.170314 32.888079 27.206812 33.046230 27.450121 C 33.058395 27.468369 33.040147 27.480535 33.046230 27.498783 C 33.052312 27.523114 33.052312 27.523114 33.046230 27.547445 C 33.040147 27.583940 33.064478 27.620438 33.046230 27.644768 C 33.119222 27.675182 33.137471 27.754256 33.143553 27.839416 L 33.143553 28.082725 C 33.186132 28.094889 33.222629 28.137469 33.240877 28.180048 L 33.386862 28.472019 C 33.411193 28.514598 33.411193 28.575425 33.386862 28.618004 Z M 34.895378 28.277372 C 34.919709 28.246958 34.980536 28.234793 34.992702 28.228710 L 35.187349 27.888077 C 35.102191 27.894160 34.980536 27.930657 34.895378 27.936739 L 34.895378 27.985401 C 34.925792 28.015815 34.944040 28.040146 34.944040 28.082725 C 34.944040 28.167881 34.907544 28.222627 34.895378 28.277372 Z M 6.622871 23.508515 C 6.635037 23.496348 6.653284 23.472017 6.671533 23.459853 L 6.671533 23.411192 C 6.653284 23.350363 6.641120 23.289537 6.671533 23.119221 C 6.695864 23.046228 6.708030 23.058392 6.768857 23.021897 C 6.805354 22.997566 6.872263 23.009730 6.914842 23.021897 C 6.927008 23.027980 6.951339 23.015815 6.963504 23.021897 C 6.945255 22.845498 7.024332 22.675182 7.158151 22.583941 C 7.218979 22.541362 7.279806 22.486617 7.352798 22.486617 C 7.565694 22.486617 7.711679 22.681265 7.742093 22.924574 C 7.754259 23.009730 7.766424 23.094890 7.742093 23.167883 L 7.839416 23.070559 C 7.839416 23.040145 7.796837 23.052311 7.790754 23.021897 L 7.790754 22.875912 C 7.802921 22.790752 7.863747 22.717759 7.936740 22.681265 L 7.839416 22.681265 C 7.815085 22.687347 7.809003 22.681265 7.790754 22.681265 C 7.717762 22.663016 7.687348 22.663016 7.547445 22.486617 C 7.510950 22.437956 7.486619 22.352796 7.498784 22.291970 C 7.510950 22.237226 7.559612 22.218978 7.596107 22.194647 C 7.675182 22.127737 7.748175 22.048661 7.839416 21.999999 L 7.936740 21.951338 C 7.954988 21.939171 8.015815 21.957420 8.034063 21.951338 L 8.034063 21.902676 C 8.052312 21.896593 8.064476 21.902676 8.082725 21.902676 C 8.094891 21.908759 8.119222 21.945255 8.131387 21.951338 L 8.423358 22.048661 C 8.478102 22.085156 8.514599 22.158149 8.520681 22.243308 L 8.520681 22.340632 C 8.593674 22.291970 8.757908 22.267639 9.201947 22.194647 C 9.214113 22.194647 9.238444 22.194647 9.250608 22.194647 C 9.256690 22.194647 9.293188 22.194647 9.299270 22.194647 C 9.311436 22.194647 9.335767 22.194647 9.347932 22.194647 L 10.077859 22.194647 C 10.114356 22.139902 10.193432 22.103406 10.272506 22.097323 L 10.759124 22.097323 C 10.813868 22.103406 10.868614 22.115571 10.905110 22.145985 C 10.935523 22.121654 10.965938 22.085156 11.002433 22.048661 C 11.045013 22.018248 11.099757 21.999999 11.148419 21.999999 C 11.160585 21.999999 11.184916 21.993917 11.197081 21.999999 L 11.294404 22.048661 L 11.294404 21.999999 C 11.306570 21.920924 11.361315 21.835766 11.440390 21.805352 C 11.422141 21.774939 11.397810 21.750608 11.391728 21.708029 C 11.391728 21.610705 11.440390 21.513381 11.440390 21.416058 L 11.440390 21.318734 C 11.458639 21.203162 11.537713 21.142335 11.586375 21.124087 L 11.586375 21.026763 C 11.568126 20.996350 11.537713 20.972019 11.537713 20.929440 C 11.537713 20.844280 11.531631 20.728710 11.537713 20.637469 C 11.543795 20.576640 11.586375 20.527978 11.635037 20.491484 C 11.635037 20.442822 11.628955 20.394160 11.635037 20.345498 C 11.610706 20.309000 11.592457 20.254257 11.586375 20.199513 C 11.592457 20.132603 11.580293 20.071776 11.586375 20.004866 L 11.586375 19.956204 C 11.598541 19.871044 11.671534 19.779805 11.781022 19.761557 L 11.781022 19.664233 L 11.489051 19.907542 C 11.476887 19.919706 11.452556 19.950121 11.440390 19.956204 L 10.905110 20.053527 C 10.880779 20.059610 10.832117 20.059610 10.807786 20.053527 L 10.759124 20.053527 L 10.661801 20.004866 L 10.029197 20.150851 L 9.688565 20.588807 C 9.676400 20.607055 9.658152 20.631386 9.639903 20.637469 L 9.591241 20.637469 C 9.536497 20.667883 9.445256 20.686131 9.396594 20.637469 L 9.299270 20.491484 L 9.201947 20.540145 C 9.159367 20.564476 9.141120 20.613138 9.104623 20.637469 C 9.055961 20.661800 9.007299 20.661800 8.958638 20.637469 L 8.228711 20.248175 C 8.216546 20.242092 8.192215 20.211677 8.180049 20.199513 C 8.167884 20.187346 8.137469 20.169099 8.131387 20.150851 L 7.936740 19.615571 L 7.693431 19.761557 C 7.675182 19.773720 7.669100 19.804136 7.644769 19.810218 L 7.596107 19.810218 C 7.583943 19.810218 7.553528 19.810218 7.547445 19.810218 L 7.109489 19.712895 L 6.963504 20.004866 L 7.012166 21.318734 C 7.018248 21.349148 7.012166 21.385644 7.012166 21.416058 C 7.012166 21.446471 7.024332 21.440389 7.012166 21.464720 C 6.939173 21.592457 6.817518 21.738442 6.720195 21.854014 L 6.671533 21.902676 C 6.659368 21.914840 6.635037 21.939171 6.622871 21.951338 C 6.604623 21.963502 6.592458 21.993917 6.574209 21.999999 L 6.184915 22.048661 L 6.184915 22.389294 Z M 8.520681 22.729926 C 8.520681 22.717759 8.520681 22.687347 8.520681 22.681265 C 8.484186 22.632603 8.472020 22.590024 8.472020 22.535279 C 8.447689 22.565693 8.405109 22.577858 8.374696 22.583941 C 8.265208 22.614355 8.161800 22.656934 8.034063 22.681265 Z M 38.399028 22.340632 C 38.484186 22.152068 38.569344 21.975669 38.642337 21.805352 L 38.642337 21.416058 C 38.624089 21.446471 38.581510 21.452553 38.545013 21.464720 L 38.447690 22.097323 L 38.447690 22.145985 Z M 4.530414 21.659367 L 4.627737 21.562043 C 4.676399 21.513381 4.761558 21.482968 4.822385 21.513381 L 5.017032 21.659367 L 5.163017 21.270072 C 5.163017 21.263990 5.163017 21.227493 5.163017 21.221411 C 5.169099 21.203162 5.199514 21.184913 5.211679 21.172749 L 5.309003 21.026763 C 5.315085 21.014596 5.296838 20.984184 5.309003 20.978102 L 5.503650 20.783454 C 5.515816 20.777372 5.588809 20.740875 5.600973 20.734793 L 5.844282 20.588807 L 6.233577 19.420924 C 6.239659 19.414841 6.227494 19.378345 6.233577 19.372262 L 6.330900 19.274938 C 6.373480 19.226277 6.464721 19.195863 6.525548 19.226277 L 6.574209 19.274938 L 6.720195 19.080291 C 6.732361 19.043793 6.732361 19.001216 6.768857 18.982968 C 6.799270 18.964720 6.841849 18.946470 6.866180 18.934306 C 6.884429 18.928223 6.902677 18.940389 6.914842 18.934306 L 7.109489 18.642335 C 7.145986 18.587591 7.237226 18.563260 7.304136 18.593673 L 7.498784 18.690997 C 7.529197 18.703161 7.577859 18.757907 7.596107 18.788320 L 7.644769 18.642335 C 7.705597 18.216543 7.802921 17.802917 7.888078 17.377128 L 7.839416 17.085157 L 7.742093 16.793187 L 7.644769 16.160583 C 7.638687 16.142335 7.638687 16.130170 7.644769 16.111921 C 7.644769 16.105839 7.644769 16.069342 7.644769 16.063260 C 7.681266 15.917274 7.699513 15.765206 7.742093 15.625303 L 7.790754 15.576642 C 7.796837 15.552311 7.772506 15.546228 7.790754 15.527980 C 7.802921 15.515814 7.851582 15.509732 7.888078 15.479318 L 7.839416 15.430656 C 7.821168 15.400243 7.833334 15.369829 7.839416 15.333333 C 7.839416 15.321167 7.881996 15.296836 7.888078 15.284671 L 8.180049 14.603406 C 8.186131 14.591240 8.167884 14.566909 8.180049 14.554744 L 8.812652 14.019464 L 9.104623 13.581508 C 9.110705 13.569342 9.147203 13.538929 9.153285 13.532846 C 9.165451 13.514598 9.153285 13.484184 9.153285 13.484184 C 9.615572 12.875912 10.296837 12.060826 10.418492 11.975668 L 11.294404 11.537712 C 11.373479 11.489050 11.458639 11.452554 11.732360 11.294403 L 11.829684 11.197079 C 12.164235 10.686130 12.644770 9.950121 13.046229 9.396593 C 13.934308 8.271289 14.153286 7.948904 15.284672 6.817517 C 15.290755 6.811434 15.327251 6.823600 15.333334 6.817517 L 15.625305 6.574208 C 15.667884 6.531629 15.728711 6.519464 15.771290 6.476885 L 15.819952 6.379561 C 15.832119 6.367396 15.856450 6.385644 15.868614 6.379561 C 15.929442 6.343065 15.996351 6.300486 16.063261 6.282237 C 16.075428 6.227493 16.105840 6.215327 16.355232 6.038928 C 16.397811 6.008515 16.452555 5.990267 16.501217 5.990267 L 16.598541 5.844281 C 16.616789 5.819950 16.616789 5.807785 16.647202 5.795619 L 16.841850 5.698296 L 16.890511 5.649634 C 16.902678 5.631386 16.920925 5.613138 16.939173 5.600972 C 17.024333 5.546228 17.133820 5.534062 17.231144 5.503649 L 17.279806 5.454987 C 17.291973 5.406325 17.340635 5.381994 17.377129 5.357663 C 17.395378 5.339415 17.413627 5.315084 17.425791 5.309001 C 17.456205 5.290753 17.480536 5.272505 17.523115 5.260340 L 17.669100 5.163016 C 17.693431 5.150850 17.742093 5.114354 17.766424 5.114354 L 17.863747 5.114354 C 17.869830 5.108271 17.906327 5.071775 17.912409 5.065692 L 18.009733 5.065692 C 18.027981 5.029196 18.070562 4.986617 18.107056 4.968369 C 10.436741 6.714111 4.688565 13.490267 4.530414 21.659367 Z M 39.372264 20.588807 C 39.366181 20.527978 39.378347 20.454986 39.372264 20.394160 L 39.323602 20.345498 C 39.244527 20.290754 39.159369 20.254257 39.080293 20.199513 L 39.031631 20.248175 L 39.031631 20.345498 C 39.049879 20.351581 39.068128 20.388077 39.080293 20.394160 C 39.092459 20.400243 39.122872 20.388077 39.128955 20.394160 Z M 31.002434 17.133819 C 30.777373 17.103406 30.607057 16.945255 30.564478 16.744525 C 30.527981 16.580291 30.576643 16.446471 30.710463 16.355230 C 30.783456 16.306569 30.862531 16.257907 30.953772 16.257907 C 31.178833 16.257907 31.385646 16.440389 31.440390 16.647201 C 31.476887 16.762773 31.464721 16.890510 31.391728 16.987834 C 31.318736 17.091240 31.203164 17.133819 31.051096 17.133819 C 31.045013 17.133819 31.008517 17.133819 31.002434 17.133819 Z M 38.739660 17.036496 C 38.362532 15.753041 37.875914 14.530413 37.231145 13.386860 C 37.206814 13.368612 37.225062 13.362530 37.085159 13.192213 C 37.109490 13.289537 37.030415 13.362530 36.987836 13.386860 C 36.975670 13.392943 36.951339 13.429440 36.939174 13.435522 C 36.890512 13.447688 36.841850 13.435522 36.793188 13.435522 L 36.744527 13.435522 L 36.793188 13.532846 C 36.817519 13.581508 36.817519 13.624087 36.841850 13.678831 L 36.890512 13.776155 C 36.902677 13.794403 36.939174 13.800486 36.939174 13.824817 L 36.939174 13.922140 L 37.133821 14.554744 L 37.182483 14.749391 L 37.377130 15.090024 L 37.474454 15.187347 C 37.486619 15.199513 37.517033 15.217761 37.523115 15.236009 C 37.590025 15.394160 37.596108 15.491483 37.620439 15.576642 L 37.815086 15.917274 L 37.961072 16.063260 C 37.985403 16.075425 37.991485 16.087590 38.009733 16.111921 L 38.593675 16.987834 Z M 36.501218 12.802919 C 36.537714 12.778588 36.562045 12.809002 36.598541 12.802919 C 36.610707 12.796836 36.635038 12.802919 36.647203 12.802919 C 36.671534 12.809002 36.726278 12.784671 36.744527 12.802919 C 36.671534 12.711678 36.549879 12.632603 36.452556 12.510948 L 36.209247 12.364963 Z" transform="scale(0.500000,0.500000) translate(-2.000000,-2.000000)" fill="#ffffff" opacity="1.000000"></path>
    </g>
</svg>