<?xml version="1.0" encoding="UTF-8" standalone="yes"?>
<!DOCTYPE svg PUBLIC "-//W3C//DTD SVG 1.1//EN" "http://www.w3.org/Graphics/SVG/1.1/DTD/svg11.dtd">

<svg width="24" height="24" viewBox="0 0 24 24" xmlns="http://www.w3.org/2000/svg" xmlns:xlink="http://www.w3.org/1999/xlink" version="1.1" baseProfile="full">
    <g transform="scale(1,-1) translate(0,-24)">
        <path d="M 50.000000 26.000000 C 50.000000 39.254834 39.254834 50.000000 26.000000 50.000000 C 12.745166 50.000000 2.000000 39.254834 2.000000 26.000000 C 2.000000 12.745166 12.745166 2.000000 26.000000 2.000000 C 39.254834 2.000000 50.000000 12.745166 50.000000 26.000000 Z" transform="scale(0.500000,0.500000) translate(-2.000000,-2.000000)" fill="#303aa6" opacity="1.000000"></path>
        <path d="M 16.441601 15.999998 L 12.400001 15.999998 L 12.400001 1.599998 L 6.400001 1.599998 L 6.400001 15.999998 L 2.800001 15.999998 L 2.800001 20.799998 L 6.400001 20.799998 L 6.400001 23.691999 C 6.402401 27.901599 8.150801 30.399999 13.110401 30.399999 L 17.200001 30.399999 L 17.200001 25.599999 L 14.455601 25.599999 C 12.524801 25.599998 12.400001 24.879998 12.400001 23.532399 L 12.400001 20.799998 L 17.200001 20.799998 L 16.441601 15.999998 Z" transform="scale(0.500000,0.500000) translate(14.000000,8.000000)" fill="#fffefe" opacity="1.000000"></path>
    </g>
</svg>