<?xml version="1.0" encoding="UTF-8" standalone="yes"?>
<!DOCTYPE svg PUBLIC "-//W3C//DTD SVG 1.1//EN" "http://www.w3.org/Graphics/SVG/1.1/DTD/svg11.dtd">

<svg width="50" height="50" viewBox="0 0 50 50" xmlns="http://www.w3.org/2000/svg" xmlns:xlink="http://www.w3.org/1999/xlink" version="1.1" baseProfile="full">
    <g transform="scale(1,-1) translate(0,-50)">
        <path d="M 19.789100 1.004600 L 19.856100 1.018800 L 20.114600 1.077000 L 21.073200 1.320500 L 24.303200 2.380800 L 26.315700 3.234600 L 28.420600 4.328600 L 30.488500 5.681500 L 32.389900 7.311700 L 33.364100 8.692100 L 33.968400 10.368500 L 34.276700 12.192900 L 34.363000 14.017300 L 34.244100 15.859200 L 35.231800 16.584500 L 36.447600 17.681200 L 39.016400 20.460800 L 41.263600 23.303600 L 43.210700 26.176100 L 44.879200 29.045000 L 46.290600 31.876700 L 47.466400 34.637800 L 49.197300 39.814100 L 50.244100 44.306300 L 50.778700 47.846500 L 50.973300 50.167000 L 50.996900 50.786100 L 50.999600 50.945800 L 50.999900 50.986300 L 50.999900 50.999900 L 50.986300 50.999900 L 50.945800 50.999600 L 50.786100 50.996900 L 50.167000 50.973300 L 47.846500 50.778700 L 44.306300 50.244100 L 39.814100 49.197300 L 34.637800 47.466400 L 31.876700 46.290600 L 29.045000 44.879200 L 26.176100 43.210700 L 23.303600 41.263600 L 20.460800 39.016400 L 17.681200 36.447600 L 16.584500 35.231800 L 15.859200 34.244100 L 14.017300 34.363000 L 12.192900 34.276700 L 10.368500 33.968400 L 8.692100 33.364100 L 7.311700 32.389900 L 5.681500 30.488500 L 4.328600 28.420600 L 3.234600 26.315700 L 2.380800 24.303200 L 1.320500 21.073200 L 1.077000 20.114600 L 1.018800 19.856100 L 1.004600 19.789100 L 1.000000 19.766400 L 11.425700 21.255700 L 11.425700 17.681200 L 17.681200 11.425700 L 21.255700 11.425700 L 19.766400 1.000000 Z M 33.521800 30.276800 L 32.738800 30.519800 L 32.030400 30.904100 L 31.413300 31.413300 L 30.904100 32.030400 L 30.519800 32.738800 L 30.276800 33.521800 L 30.192200 34.362500 L 30.276800 35.203200 L 30.519800 35.986100 L 30.904100 36.694500 L 31.413300 37.311700 L 32.030400 37.820800 L 32.738800 38.205200 L 33.521800 38.448100 L 34.362500 38.532800 L 35.203200 38.448100 L 35.986100 38.205200 L 36.694500 37.820800 L 37.311700 37.311700 L 37.820800 36.694500 L 38.205200 35.986100 L 38.448100 35.203200 L 38.532800 34.362500 L 38.448100 33.521800 L 38.205200 32.738800 L 37.820800 32.030400 L 37.311700 31.413300 L 36.694500 30.904100 L 35.986100 30.519800 L 35.203200 30.276800 L 34.362500 30.192200 Z M 8.702500 5.319400 L 10.200900 5.573200 L 11.721000 6.007700 L 13.149300 6.668000 L 14.372100 7.599500 L 15.138100 8.616800 L 15.596100 9.763900 L 14.641100 10.716800 L 14.370000 10.310200 L 13.567800 9.682800 L 12.718000 9.293500 L 11.868100 9.094800 L 11.065800 9.039000 L 9.794800 9.165700 L 9.421400 9.253000 L 9.321100 9.281700 L 9.295200 9.289800 L 9.286400 9.292600 L 9.283500 9.301400 L 9.275400 9.327400 L 9.246600 9.427700 L 9.159200 9.801000 L 9.032000 11.072000 L 9.087600 11.874300 L 9.286400 12.724200 L 9.675900 13.574100 L 10.303900 14.376200 L 10.710500 14.647300 L 9.757600 15.602300 L 8.610500 15.144400 L 7.593200 14.378300 L 6.672500 13.166300 L 6.017200 11.743100 L 5.583500 10.223700 L 5.327200 8.722900 L 5.171200 6.236600 L 5.183500 5.481000 L 5.193000 5.275400 L 5.196200 5.221900 L 5.197400 5.203600 L 5.215500 5.202300 L 5.268700 5.198800 L 5.473200 5.188200 L 6.225100 5.172200 Z" transform="scale(1.000000,1.000000) translate(-1.000000,-1.000000)" fill="#f0f0f0" opacity="1.000000"></path>
    </g>
</svg>