<?xml version="1.0" encoding="UTF-8" standalone="yes"?>
<!DOCTYPE svg PUBLIC "-//W3C//DTD SVG 1.1//EN" "http://www.w3.org/Graphics/SVG/1.1/DTD/svg11.dtd">

<svg width="16" height="14" viewBox="0 0 16 14" xmlns="http://www.w3.org/2000/svg" xmlns:xlink="http://www.w3.org/1999/xlink" version="1.1" baseProfile="full">
    <g transform="scale(1,-1) translate(0,-14)">
        <path d="M 25.200000 30.000000 C 20.567999 30.000000 18.000000 26.810899 18.000000 26.810899 C 18.000000 26.810899 15.432001 30.000000 10.800000 30.000000 C 5.939200 30.000000 2.000000 26.243270 2.000000 21.607630 C 2.000000 15.243161 9.859200 9.075531 12.049600 7.126976 C 14.572800 4.883926 18.000000 2.000000 18.000000 2.000000 C 18.000000 2.000000 21.427200 4.883924 23.950400 7.126975 C 26.140799 9.075533 34.000000 15.243162 34.000000 21.607630 C 34.000000 26.243270 30.060800 30.000000 25.200000 30.000000 Z M 22.497600 9.995640 C 22.214400 9.751498 21.968000 9.539400 21.768000 9.360871 C 20.566400 8.292752 19.145600 7.067465 18.000000 6.087847 C 16.854400 7.067466 15.432000 8.294277 14.232000 9.360871 C 14.030400 9.539400 13.784000 9.753024 13.502400 9.995640 C 11.230400 11.953352 5.200000 17.153570 5.200000 21.607630 C 5.200000 24.552588 7.712000 26.948229 10.800000 26.948229 C 13.723200 26.948229 15.417600 25.002725 15.462400 24.952371 L 18.000000 22.370572 L 20.537600 24.952371 C 20.553600 24.972207 22.276801 26.948229 25.200000 26.948229 C 28.288000 26.948229 30.800000 24.552588 30.800000 21.607630 C 30.800000 17.153570 24.769601 11.953352 22.497600 9.995640 Z" transform="scale(0.500000,0.500000) translate(-2.000000,-2.000000)" fill="#ffffff" opacity="1.000000"></path>
    </g>
</svg>