<?xml version="1.0" encoding="UTF-8" standalone="yes"?>
<!DOCTYPE svg PUBLIC "-//W3C//DTD SVG 1.1//EN" "http://www.w3.org/Graphics/SVG/1.1/DTD/svg11.dtd">

<svg width="16" height="14" viewBox="0 0 16 14" xmlns="http://www.w3.org/2000/svg" xmlns:xlink="http://www.w3.org/1999/xlink" version="1.1" baseProfile="full">
    <g transform="scale(1,-1) translate(0,-14)">
        <path d="M 25.200000 30.000000 C 20.567999 30.000000 18.000000 26.810899 18.000000 26.810899 C 18.000000 26.810899 15.432001 30.000000 10.800000 30.000000 C 5.939200 30.000000 2.000000 26.243270 2.000000 21.607630 C 2.000000 15.243161 9.859200 9.075531 12.049600 7.126976 C 14.572800 4.883926 18.000000 2.000000 18.000000 2.000000 C 18.000000 2.000000 21.427200 4.883924 23.950400 7.126975 C 26.140799 9.075533 34.000000 15.243162 34.000000 21.607630 C 34.000000 26.243270 30.060800 30.000000 25.200000 30.000000 Z" transform="scale(0.500000,0.500000) translate(-2.000000,-2.000000)" fill="#ff6464" opacity="1.000000"></path>
    </g>
</svg>