<?xml version="1.0" encoding="UTF-8" standalone="yes"?>
<!DOCTYPE svg PUBLIC "-//W3C//DTD SVG 1.1//EN" "http://www.w3.org/Graphics/SVG/1.1/DTD/svg11.dtd">

<svg width="27" height="32" viewBox="0 0 27 32" xmlns="http://www.w3.org/2000/svg" xmlns:xlink="http://www.w3.org/1999/xlink" version="1.1" baseProfile="full">
    <g transform="scale(1,-1) translate(0,-32)">
        <path d="M 49.471264 32.593815 C 49.507757 28.591823 51.697830 26.394577 53.634347 25.257830 C 53.691549 25.226580 53.742816 25.193330 53.798123 25.156330 C 53.872119 25.109455 53.945105 25.058705 54.013165 25.005955 C 55.623142 23.880957 56.575112 22.080211 56.575112 20.125089 C 56.575112 19.562591 56.495181 19.005967 56.341255 18.478593 C 56.293902 18.257843 56.227862 18.039094 56.146921 17.826219 C 55.453431 16.089847 54.239067 13.458978 52.377429 10.783233 C 49.855891 7.154365 46.404101 2.185625 40.272048 2.074250 L 40.029352 2.070375 C 37.392400 2.070375 35.578241 2.841873 34.121180 3.460997 C 32.904795 3.982496 31.724904 3.999996 30.316206 3.999996 C 28.790580 3.999996 28.262760 3.943371 27.010892 3.417997 C 25.610023 2.831998 23.868850 2.101625 21.417392 2.005875 C 21.299958 2.002000 21.177726 2.000000 21.059283 2.000000 C 15.079135 2.000000 11.309644 7.357365 8.813739 10.904233 C 5.823602 15.161974 3.548800 20.714714 2.575112 26.140578 C 1.367818 32.875065 2.201344 38.952678 4.987298 43.713419 C 8.288192 49.353033 14.164795 52.911650 20.298869 52.998525 L 20.505073 53.001400 C 23.537637 53.001400 26.093648 51.725028 27.960085 50.792404 C 28.535257 50.505280 29.302742 50.121531 29.669690 50.007281 C 30.236402 50.076656 31.489279 50.581530 32.420540 50.958404 C 33.177166 51.263154 34.001853 51.590278 34.880837 51.895902 C 36.357596 52.572651 37.591785 53.304150 38.584161 54.387147 C 40.001825 55.938894 41.076026 57.932015 41.420372 60.040512 C 41.420372 60.046387 41.418352 60.046387 41.418352 60.053262 C 41.424286 60.111886 41.429211 60.167511 41.429211 60.226136 C 41.429211 61.213384 40.504895 62.013258 39.365411 62.013258 C 39.166152 62.013258 38.973713 61.978133 38.790239 61.930258 C 37.231529 61.445884 35.677870 60.646135 34.409208 59.648012 L 34.395445 59.663637 C 34.053120 59.390138 33.623035 59.219263 33.149512 59.219263 C 32.046647 59.219263 31.151879 60.105012 31.151879 61.194884 C 31.151879 61.791508 31.426143 62.320882 31.847389 62.684131 L 31.845368 62.686131 C 31.861152 62.699756 31.878957 62.708631 31.894741 62.722256 C 31.960782 62.774006 32.023918 62.824756 32.093999 62.867756 C 33.668493 64.083629 35.534929 65.085502 37.488241 65.713501 C 37.558323 65.736001 37.630298 65.756501 37.703284 65.776001 C 38.278329 65.926250 38.821932 66.000000 39.365535 66.000000 C 42.731459 66.000000 45.468041 63.466255 45.468041 60.354011 C 45.468041 60.241761 45.466020 60.129387 45.459201 60.020012 C 45.452256 59.878387 45.439503 59.739762 45.415764 59.600138 C 45.329898 59.058139 45.200721 58.517140 45.048815 57.982016 C 45.027096 57.902891 45.006388 57.826766 44.983659 57.748641 C 44.827838 57.235017 44.637419 56.721268 44.424271 56.219394 C 44.389798 56.138394 44.354189 56.057270 44.317697 55.977145 C 44.086870 55.456646 43.828390 54.943022 43.538342 54.444898 C 43.533417 54.434148 43.526472 54.425398 43.519653 54.416523 C 43.209906 53.891149 42.872506 53.380400 42.503537 52.889151 C 42.245057 52.543401 41.977738 52.207527 41.689710 51.884278 C 40.069884 50.057156 38.360278 48.962408 36.178161 48.101035 C 36.174246 48.099035 36.167301 48.099035 36.162377 48.097160 C 36.155432 48.094285 36.146592 48.090285 36.139647 48.088410 L 36.139647 48.090410 C 33.621139 47.206662 31.401518 46.000539 29.554275 46.000539 C 27.307001 46.000539 24.167989 49.000533 20.505071 49.000533 C 20.461633 49.000533 20.418195 49.000533 20.377788 49.000533 C 15.489647 48.929283 11.045480 46.026914 8.523941 41.722172 C 3.452326 33.052814 7.227626 20.210965 12.172969 13.173854 C 14.549548 9.796985 17.371868 6.000117 21.059409 6.000117 C 21.125450 6.000117 21.195531 6.002117 21.261698 6.003992 C 24.910725 6.146616 25.910047 8.000113 30.316333 8.000113 C 34.658976 8.000113 36.305445 6.072367 40.029478 6.072367 C 40.083775 6.072367 40.139967 6.072367 40.197168 6.072367 C 44.118566 6.146617 46.610431 9.584110 49.008601 13.035228 C 50.663026 15.414099 51.734323 17.744219 52.345988 19.281341 C 52.352933 19.334091 52.349902 19.378966 52.372631 19.435591 C 52.452562 19.652341 52.496884 19.882840 52.496884 20.125090 C 52.496884 20.837963 52.117055 21.462962 51.543904 21.816461 C 51.541883 21.818461 51.541883 21.824211 51.538979 21.826211 C 49.319358 23.132834 45.544942 26.330077 45.486730 32.556691 C 45.443292 37.425306 47.978595 40.571800 49.840233 42.146046 C 50.293047 42.511296 50.584989 43.065045 50.584989 43.688043 C 50.584989 44.239792 50.356183 44.739791 49.987214 45.101166 C 49.978375 45.109916 49.983300 45.116791 49.976355 45.123666 C 49.142703 45.943914 48.247935 46.592413 47.350262 47.106037 L 47.355187 47.112912 C 46.775090 47.464411 46.383519 48.090410 46.383519 48.812159 C 46.383519 49.917656 47.290156 50.813155 48.403881 50.813155 C 48.779795 50.813155 49.124014 50.707655 49.425932 50.529905 L 49.427953 50.531905 C 49.443737 50.523155 49.462425 50.512405 49.478209 50.503530 C 49.502832 50.485030 49.529476 50.474280 49.555109 50.455655 C 50.680704 49.799407 51.806298 48.989783 52.866862 47.944910 C 52.961567 47.852160 53.052357 47.753535 53.136202 47.652911 C 54.123654 46.556288 54.663343 45.163666 54.663343 43.688043 C 54.663343 41.912672 53.868204 40.241800 52.479205 39.096302 C 51.029973 37.862804 49.441715 35.736935 49.471264 32.593815 L 49.471264 32.593815 Z M 29.305646 54.001524 C 28.190911 54.001524 27.284274 54.896022 27.284274 56.001520 C 27.284274 57.105018 28.190911 57.999516 29.305646 57.999516 C 30.422907 57.999516 31.326514 57.105018 31.326514 56.001520 C 31.326512 54.896022 30.422908 54.001524 29.305646 54.001524 L 29.305646 54.001524 Z" transform="scale(0.500000,0.500000) translate(-2.000000,-2.000000)" fill="#f0f0f0" opacity="1.000000"></path>
    </g>
</svg>