<?xml version="1.0" encoding="UTF-8" standalone="yes"?>
<!DOCTYPE svg PUBLIC "-//W3C//DTD SVG 1.1//EN" "http://www.w3.org/Graphics/SVG/1.1/DTD/svg11.dtd">

<svg width="50" height="50" viewBox="0 0 50 50" xmlns="http://www.w3.org/2000/svg" xmlns:xlink="http://www.w3.org/1999/xlink" version="1.1" baseProfile="full">
    <g transform="scale(1,-1) translate(0,-50)">
        <path d="M 28.803213 4.200610 L 29.272467 4.637876 L 29.752572 5.051879 L 30.242614 5.443205 L 30.741713 5.812496 L 31.248916 6.160340 L 31.763347 6.487338 L 32.284072 6.794105 L 33.340773 7.349404 L 34.411744 7.831062 L 35.489705 8.243956 L 36.567340 8.592948 L 37.637378 8.882906 L 38.692521 9.118676 L 39.725477 9.305112 L 40.728948 9.447104 L 41.695658 9.549489 L 42.618313 9.617144 L 43.489632 9.654907 L 44.302294 9.667669 L 44.662864 9.704977 L 44.998908 9.810182 L 45.303178 9.975999 L 45.568396 10.195174 L 45.787304 10.460436 L 45.952660 10.764544 L 46.057198 11.100200 L 46.093654 11.460164 L 46.093654 38.348595 L 46.059120 38.702706 L 45.957685 39.038071 L 45.792567 39.346853 L 45.567022 39.621259 L 45.295915 39.844226 L 44.991508 40.007413 L 44.661502 40.107647 L 44.313575 40.141761 L 44.309200 40.141761 L 43.488205 40.127568 L 42.597447 40.084397 L 41.647242 40.005699 L 40.647955 39.884998 L 39.609923 39.715756 L 38.543473 39.491453 L 37.458953 39.205570 L 36.366714 38.851610 L 35.277088 38.423039 L 34.736484 38.178744 L 34.200412 37.913348 L 33.670165 37.626051 L 33.147043 37.316020 L 32.632321 36.982450 L 32.127299 36.624529 L 31.633273 36.241448 L 31.151537 35.832378 L 30.683390 35.396502 L 30.230093 34.933028 L 29.792975 34.441123 L 29.373324 33.919966 L 28.972408 33.368769 L 28.591545 32.786689 L 28.485299 32.582200 L 28.408348 32.360565 L 28.361529 32.124982 L 28.345730 31.878642 L 28.345730 3.739477 Z M 25.567617 31.878642 L 25.551790 32.124982 L 25.504921 32.360565 L 25.427903 32.582200 L 25.321643 32.786689 L 24.940794 33.368769 L 24.539889 33.919966 L 24.120252 34.441123 L 23.683145 34.933028 L 23.229865 35.396502 L 22.761717 35.832366 L 22.279995 36.241436 L 21.785979 36.624529 L 21.280963 36.982450 L 20.766251 37.316008 L 20.243127 37.626036 L 19.712882 37.913333 L 19.176824 38.178729 L 18.636218 38.423027 L 17.546594 38.851592 L 16.454355 39.205546 L 15.369823 39.491412 L 14.303373 39.715705 L 13.265311 39.884930 L 12.266011 40.005622 L 11.315796 40.084275 L 10.425008 40.127437 L 9.603986 40.141588 L 9.599773 40.141588 L 9.251618 40.107474 L 8.921572 40.007252 L 8.617234 39.844066 L 8.346165 39.621083 L 8.120618 39.346683 L 7.955502 39.037898 L 7.854056 38.702548 L 7.819533 38.348422 L 7.819533 11.460164 L 7.855989 11.100147 L 7.960528 10.764437 L 8.125885 10.460315 L 8.344818 10.195027 L 8.610047 9.975839 L 8.914345 9.810007 L 9.250432 9.704817 L 9.611054 9.667494 L 10.423728 9.654747 L 11.295034 9.616970 L 12.217688 9.549328 L 13.184400 9.446930 L 14.187886 9.304952 L 15.220841 9.118502 L 16.275971 8.882732 L 17.346008 8.592788 L 18.423645 8.243795 L 19.501603 7.830888 L 20.572572 7.349231 L 21.629290 6.793944 L 22.150015 6.487164 L 22.664432 6.160166 L 23.171649 5.812322 L 23.670731 5.443045 L 24.160787 5.051706 L 24.640883 4.637703 L 25.110138 4.200449 L 25.567617 3.739303 Z M 3.943022 1.869972 L 4.144555 1.904300 L 5.896539 2.272950 L 6.873010 2.451689 L 7.909379 2.620767 L 9.000337 2.775707 L 10.140605 2.912060 L 11.324850 3.025335 L 12.547776 3.111097 L 13.804077 3.164869 L 15.088447 3.182173 L 16.395578 3.158575 L 17.720163 3.089597 L 19.056909 2.970776 L 20.400497 2.797635 L 21.745630 2.565726 L 23.086990 2.270585 L 22.695394 2.628036 L 22.294569 2.967088 L 21.468173 3.591820 L 20.613616 4.148509 L 19.736776 4.640856 L 18.843484 5.072591 L 17.939591 5.447428 L 17.030949 5.769081 L 16.123401 6.041252 L 15.222787 6.267682 L 14.334976 6.452074 L 13.465803 6.598141 L 12.621113 6.709613 L 11.806744 6.790190 L 11.028578 6.843600 L 9.604146 6.883768 L 9.138319 6.908503 L 8.685785 6.978897 L 8.248866 7.092627 L 7.829867 7.247367 L 7.431097 7.440818 L 7.054888 7.670643 L 6.703533 7.934542 L 6.379354 8.230179 L 6.084644 8.555252 L 5.821734 8.907439 L 5.592934 9.284427 L 5.400549 9.683890 L 5.246886 10.103506 L 5.134280 10.540973 L 5.065009 10.993967 L 5.041408 11.460164 L 5.041408 33.940742 L 3.744024 33.940742 L 3.383989 33.904265 L 3.048409 33.799635 L 2.744551 33.634136 L 2.479669 33.415031 L 2.261016 33.149593 L 2.095859 32.845084 L 1.991439 32.508772 L 1.955024 32.147913 L 1.955024 3.651404 L 1.966385 3.447797 L 2.000000 3.249281 L 2.055110 3.057379 L 2.130994 2.873616 L 2.226907 2.699553 L 2.342114 2.536716 L 2.475868 2.386626 L 2.627451 2.250848 L 2.793674 2.132642 L 2.969871 2.035054 L 3.154415 1.958460 L 3.345653 1.903258 L 3.541932 1.869852 L 3.741610 1.858627 Z M 50.370616 1.869451 L 50.566923 1.902817 L 50.758227 1.957965 L 50.942878 2.034520 L 51.119208 2.132107 L 51.285566 2.250340 L 51.437143 2.386132 L 51.570901 2.536235 L 51.686109 2.699099 L 51.782021 2.873175 L 51.857903 3.056938 L 51.913016 3.248839 L 51.946629 3.447342 L 51.957991 3.650896 L 51.957991 32.147913 L 51.921630 32.508772 L 51.817250 32.845084 L 51.652120 33.149593 L 51.433465 33.415031 L 51.168585 33.634136 L 50.864699 33.799635 L 50.529093 33.904265 L 50.168991 33.940742 L 48.871607 33.940742 L 48.871607 11.460164 L 48.848005 10.993967 L 48.778747 10.540973 L 48.666141 10.103506 L 48.512492 9.683890 L 48.320106 9.284427 L 48.091318 8.907439 L 47.828422 8.555239 L 47.533728 8.230165 L 47.209546 7.934502 L 46.858195 7.670603 L 46.481984 7.440765 L 46.083226 7.247300 L 45.664216 7.092534 L 45.227282 6.978777 L 44.774722 6.908369 L 44.308869 6.883595 L 42.884436 6.843426 L 42.106269 6.790002 L 41.291902 6.709412 L 40.447210 6.597927 L 39.578027 6.451847 L 38.690214 6.267428 L 37.789600 6.040984 L 36.882038 5.768773 L 35.973383 5.447107 L 35.069476 5.072244 L 34.176173 4.640482 L 33.299307 4.148094 L 32.444734 3.591379 L 31.618299 2.966620 L 31.217461 2.627555 L 30.825850 2.270077 L 32.167279 2.565219 L 33.512451 2.797128 L 34.856079 2.970255 L 36.192852 3.089062 L 37.517462 3.158040 L 38.824609 3.181625 L 40.108978 3.164307 L 41.365280 3.110523 L 42.588204 3.024761 L 43.772449 2.911472 L 44.912703 2.775133 L 46.003661 2.620193 L 47.040018 2.451128 L 48.016477 2.272389 L 49.768460 1.903793 L 49.969727 1.869558 L 50.171003 1.858239 Z" transform="scale(1.000000,1.000000) translate(-2.000000,4.000000)" fill="#f0f0f0" opacity="1.000000"></path>
    </g>
</svg>