<?xml version="1.0" encoding="UTF-8" standalone="yes"?>
<!DOCTYPE svg PUBLIC "-//W3C//DTD SVG 1.1//EN" "http://www.w3.org/Graphics/SVG/1.1/DTD/svg11.dtd">

<svg width="24" height="24" viewBox="0 0 24 24" xmlns="http://www.w3.org/2000/svg" xmlns:xlink="http://www.w3.org/1999/xlink" version="1.1" baseProfile="full">
    <g transform="scale(1,-1) translate(0,-24)">
        <path d="M 50.000000 26.000000 C 50.000000 39.254834 39.254834 50.000000 26.000000 50.000000 C 12.745166 50.000000 2.000000 39.254834 2.000000 26.000000 C 2.000000 12.745166 12.745166 2.000000 26.000000 2.000000 C 39.254834 2.000000 50.000000 12.745166 50.000000 26.000000 Z" transform="scale(0.500000,0.500000) translate(-2.000000,-2.000000)" fill="#25a6f3" opacity="1.000000"></path>
        <path d="M 29.940001 26.800000 L 25.444801 3.848801 C 25.444801 3.848801 25.251601 2.800001 23.950801 2.800001 C 23.259601 2.800001 22.903201 3.128801 22.903201 3.128801 L 13.166400 11.208400 L 8.402400 13.609600 L 2.288401 15.235600 C 2.288401 15.235600 1.200001 15.550000 1.200001 16.450000 C 1.200001 17.200000 2.319601 17.557600 2.319601 17.557600 L 27.898801 27.719201 C 27.897601 27.720401 28.680001 28.001201 29.250001 28.000001 C 29.600400 28.000000 30.000000 27.850000 30.000000 27.400000 C 30.000000 27.100000 29.940001 26.800000 29.940001 26.800000 Z" transform="scale(0.500000,0.500000) translate(6.000000,8.000000)" fill="#fffefe" opacity="1.000000"></path>
        <path d="M 6.800000 6.194001 L 2.688800 2.145201 C 2.688800 2.145201 2.510000 2.007201 2.271200 2.001201 C 2.188400 1.998801 2.099600 2.012001 2.008400 2.052801 L 3.165200 9.210801 L 6.800000 6.194001 Z" transform="scale(0.500000,0.500000) translate(16.000000,10.000000)" fill="#a0b0b8" opacity="1.000000"></path>
        <path d="M 19.076399 20.964801 C 18.873599 21.228801 18.499199 21.276801 18.235199 21.076401 L 2.400000 11.600000 C 2.400000 11.600000 4.927200 4.529600 5.312400 3.305600 C 5.698800 2.080400 6.008400 2.051600 6.008400 2.051600 L 7.165200 9.209600 L 18.963600 20.124800 C 19.227601 20.325200 19.276799 20.700800 19.076399 20.964801 Z" transform="scale(0.500000,0.500000) translate(12.000000,10.000000)" fill="#c4ced3" opacity="1.000000"></path>
    </g>
</svg>