<?xml version="1.0" encoding="UTF-8" standalone="yes"?>
<!DOCTYPE svg PUBLIC "-//W3C//DTD SVG 1.1//EN" "http://www.w3.org/Graphics/SVG/1.1/DTD/svg11.dtd">

<svg width="24" height="24" viewBox="0 0 24 24" xmlns="http://www.w3.org/2000/svg" xmlns:xlink="http://www.w3.org/1999/xlink" version="1.1" baseProfile="full">
    <g transform="scale(1,-1) translate(0,-24)">
        <path d="M 50.000000 26.000000 C 50.000000 39.254834 39.254834 50.000000 26.000000 50.000000 C 12.745166 50.000000 2.000000 39.254834 2.000000 26.000000 C 2.000000 12.745166 12.745166 2.000000 26.000000 2.000000 C 39.254834 2.000000 50.000000 12.745166 50.000000 26.000000 Z" transform="scale(0.500000,0.500000) translate(-2.000000,-2.000000)" fill="#1976d2" opacity="1.000000"></path>
        <path d="M 30.324209 19.102801 C 30.379409 19.284001 30.405809 19.452001 30.398609 19.602001 C 30.380610 20.036401 30.081809 20.352001 29.378607 20.352001 L 26.237006 20.352001 C 25.443806 20.352001 25.077806 19.872001 24.864206 19.390801 C 24.864206 19.390801 22.905806 15.360001 20.648606 12.702001 C 19.916606 11.932801 19.544606 11.952001 19.148606 11.952001 C 18.936209 11.952001 18.399808 12.208802 18.399808 12.913202 L 18.399808 19.135202 C 18.399808 19.968002 18.192208 20.352001 17.521408 20.352001 L 11.942607 20.352001 C 11.454208 20.352001 11.199808 19.968002 11.199808 19.582800 C 11.199808 18.782400 12.277408 18.590400 12.399808 16.347600 L 12.399808 12.000000 C 12.399808 10.944001 12.216208 10.752001 11.820208 10.752001 C 10.752208 10.752001 8.649808 14.352001 7.242208 19.070401 C 6.937408 19.999200 6.632608 20.352001 5.839408 20.352001 L 2.667808 20.352001 C 1.752207 20.352001 1.599808 19.903201 1.599808 19.423201 C 1.599808 18.558001 2.319808 13.880401 6.249808 8.502001 C 9.099808 4.602001 12.854608 2.352001 16.178608 2.352001 C 18.192208 2.352001 18.398608 2.864401 18.398608 3.664801 L 18.398608 7.231201 C 18.399808 8.192401 18.619409 8.352001 19.260207 8.352001 C 19.717407 8.352001 20.649807 8.052001 22.449807 5.952001 C 24.525807 3.530401 24.902607 2.352001 26.093007 2.352001 L 29.234608 2.352001 C 29.964208 2.352001 30.383008 2.658001 30.399808 3.252001 C 30.403408 3.403201 30.381808 3.572401 30.332608 3.760801 C 30.099808 4.452001 29.031808 6.141601 27.699807 7.752001 C 26.961807 8.643601 26.233407 9.526801 25.898607 10.006801 C 25.674209 10.320000 25.589008 10.540800 25.599808 10.752001 C 25.610608 10.974001 25.725808 11.185201 25.898609 11.480401 C 25.867408 11.480401 29.928207 17.181601 30.324209 19.102801 Z" transform="scale(0.500000,0.500000) translate(8.000000,12.000000)" fill="#fffefe" opacity="1.000000"></path>
    </g>
</svg>